<?xml version="1.0" standalone="no"?>
<!DOCTYPE svg PUBLIC "-//W3C//DTD SVG 20010904//EN"
 "http://www.w3.org/TR/2001/REC-SVG-20010904/DTD/svg10.dtd">
<svg version="1.0" xmlns="http://www.w3.org/2000/svg"
 width="831.000000pt" height="1280.000000pt" viewBox="0 0 831.000000 1280.000000"
 preserveAspectRatio="xMidYMid meet">
<metadata>
Created by potrace 1.15, written by Peter Selinger 2001-2017
</metadata>
<g transform="translate(0.000000,1280.000000) scale(0.100000,-0.100000)"
fill="#000000" stroke="none">
<path d="M4090 12788 c-22 -12 -67 -65 -96 -114 -11 -18 -14 -18 -45 11 -45
40 -91 65 -121 65 -32 0 -102 -74 -118 -125 -17 -56 -24 -60 -57 -37 -57 41
-111 36 -154 -14 -16 -19 -49 -110 -49 -136 -1 -33 -16 -41 -55 -28 -47 16
-120 5 -147 -22 -19 -19 -20 -28 -13 -111 l7 -90 -29 7 c-69 16 -101 18 -122
6 -36 -18 -61 -70 -61 -122 0 -27 -3 -48 -7 -48 -5 0 -28 7 -52 15 -40 14 -46
14 -80 -2 -44 -22 -70 -71 -78 -148 -6 -57 -12 -65 -33 -41 -6 8 -33 22 -60
31 -44 15 -51 15 -79 1 -28 -15 -51 -61 -51 -103 0 -18 -31 -16 -58 3 -20 14
-26 13 -67 -5 -29 -13 -52 -32 -66 -55 -24 -41 -31 -43 -67 -18 -64 44 -107
34 -185 -44 -54 -54 -76 -61 -77 -26 -1 29 -101 129 -137 137 -27 5 -37 1 -72
-30 -22 -20 -53 -56 -68 -81 -15 -24 -33 -44 -40 -44 -6 0 -21 16 -34 36 -32
52 -148 124 -199 124 -36 0 -42 -4 -60 -37 -11 -21 -31 -51 -45 -67 -24 -26
-28 -27 -55 -16 -15 6 -43 25 -61 41 -18 16 -41 29 -51 29 -11 0 -28 5 -40 11
-35 19 -63 1 -128 -81 -35 -44 -69 -80 -75 -80 -7 0 -35 20 -61 43 -65 58 -87
69 -117 58 -32 -13 -75 -65 -105 -129 -23 -52 -25 -53 -45 -37 -40 29 -92 48
-132 49 -40 1 -40 1 -59 -54 -22 -62 -24 -147 -8 -310 11 -114 16 -135 57
-255 15 -44 31 -96 36 -115 11 -51 131 -362 152 -393 10 -15 20 -42 24 -60 3
-17 14 -43 23 -57 10 -14 37 -63 60 -110 23 -46 58 -104 76 -129 19 -24 34
-50 34 -57 0 -7 11 -25 23 -41 13 -15 37 -50 52 -78 38 -66 209 -300 287 -394
35 -41 99 -111 142 -155 123 -125 315 -345 354 -406 20 -30 59 -85 88 -123 32
-42 83 -135 137 -250 70 -148 92 -207 115 -307 64 -271 70 -441 26 -660 -56
-278 -258 -671 -538 -1050 -30 -41 -85 -120 -122 -175 -79 -117 -101 -149
-171 -241 -50 -66 -76 -101 -143 -196 -44 -62 -142 -214 -179 -278 -18 -30
-47 -75 -65 -100 -29 -38 -140 -241 -241 -440 -16 -30 -32 -62 -37 -70 -4 -8
-15 -30 -23 -49 -8 -18 -30 -59 -49 -90 -19 -31 -46 -90 -61 -131 -28 -80 -57
-151 -111 -270 -19 -42 -34 -81 -34 -86 0 -6 -21 -56 -46 -110 -26 -54 -64
-151 -86 -214 -21 -63 -47 -137 -57 -165 -73 -197 -120 -378 -150 -575 -5 -30
-16 -80 -25 -111 -9 -31 -17 -69 -17 -85 0 -16 -2 -53 -5 -82 -5 -45 -3 -57
14 -75 11 -12 23 -34 27 -49 10 -39 42 -68 75 -68 35 0 38 -13 13 -65 -15 -31
-15 -43 -5 -92 6 -31 18 -64 27 -73 8 -9 15 -31 15 -49 0 -51 25 -98 67 -124
21 -14 49 -36 62 -51 15 -16 35 -26 52 -26 47 0 60 -9 47 -33 -26 -49 0 -157
37 -157 11 0 14 -7 9 -24 -8 -34 19 -81 69 -117 23 -17 46 -37 50 -45 4 -8 26
-23 48 -34 34 -18 39 -25 39 -55 0 -23 8 -41 23 -55 19 -18 22 -29 19 -78 -4
-67 16 -100 76 -131 21 -10 46 -28 56 -40 14 -15 31 -21 63 -21 l43 0 0 -70
c0 -68 1 -72 40 -114 24 -25 40 -53 40 -67 0 -42 54 -96 117 -116 35 -11 59
-25 65 -38 12 -27 89 -75 120 -75 36 0 71 -36 58 -60 -29 -53 5 -143 59 -155
17 -4 33 -15 36 -26 10 -31 83 -79 121 -79 18 0 36 5 39 10 16 26 33 7 39 -44
9 -79 22 -105 56 -117 21 -8 36 -24 50 -55 29 -66 59 -104 82 -104 11 0 36
-13 54 -30 46 -40 72 -45 141 -27 l58 14 6 -28 c10 -45 36 -77 67 -84 25 -5
31 -12 36 -43 10 -60 41 -101 99 -127 28 -14 66 -25 83 -25 19 0 38 -8 50 -21
29 -32 92 -61 128 -58 26 3 38 -4 73 -41 l41 -44 106 -2 c58 -2 108 2 111 7 8
12 46 11 101 -3 39 -11 49 -10 76 5 16 9 45 17 63 17 20 0 66 17 111 40 43 22
87 40 98 40 27 0 144 78 151 101 7 21 27 24 56 9 22 -12 150 10 174 30 7 6 39
13 71 16 36 3 66 12 79 22 11 10 32 23 47 30 16 6 30 22 34 37 4 15 19 32 38
42 48 24 65 43 72 79 7 39 11 41 30 16 12 -15 15 -15 24 -2 5 8 10 29 10 46 0
43 15 55 50 37 27 -13 33 -12 89 17 41 20 75 30 106 30 58 0 107 21 131 55 45
63 69 87 106 106 31 16 45 32 64 75 21 49 27 54 55 54 19 0 43 10 61 25 16 14
42 28 56 31 58 12 104 39 137 80 20 24 58 56 85 71 43 24 48 30 43 54 -7 39
72 119 118 119 21 0 42 9 59 25 15 14 46 29 73 34 52 9 117 53 117 79 1 9 15
26 33 37 20 13 33 30 35 45 6 58 11 68 31 63 21 -5 127 27 197 59 56 26 79 76
70 152 -6 52 -5 56 23 76 16 11 33 20 38 19 34 -6 110 42 97 62 -9 15 14 37
47 44 40 9 86 49 111 99 31 60 108 151 127 149 28 -3 105 20 130 39 13 10 29
18 36 18 35 0 113 44 130 73 10 18 36 47 57 65 33 30 38 39 38 78 0 25 7 58
15 74 13 25 22 30 53 30 57 0 109 18 130 45 17 21 28 25 78 26 l59 0 41 62
c30 46 53 68 88 85 34 17 52 34 62 58 16 38 21 40 48 19 11 -8 27 -15 36 -15
22 0 67 49 81 87 14 41 53 49 211 41 28 -1 44 6 72 30 23 20 48 32 64 32 44 0
102 71 102 124 0 17 6 26 15 26 9 0 18 6 21 13 3 10 20 12 59 9 41 -3 58 0 70
12 12 12 36 16 95 16 71 0 80 2 98 24 10 13 37 29 60 35 40 11 61 38 47 61 -4
6 -1 17 5 25 10 12 10 32 0 92 -7 43 -16 105 -20 138 -9 72 -51 223 -79 285
-13 28 -21 67 -21 100 0 31 -6 64 -14 75 -7 11 -26 49 -41 85 -15 36 -45 104
-66 151 -22 47 -39 93 -39 102 0 10 -7 17 -15 17 -9 0 -21 12 -27 28 -19 42
-208 354 -229 378 -11 11 -19 25 -19 30 0 5 -18 31 -40 58 -22 26 -40 52 -40
56 0 11 -64 104 -122 175 -58 73 -95 120 -196 250 -77 101 -94 120 -209 244
-34 36 -79 88 -100 115 -37 47 -165 196 -412 479 -144 166 -269 335 -307 415
-15 31 -37 71 -49 87 -29 39 -88 190 -110 280 -29 116 -55 338 -55 471 0 129
27 333 55 409 61 166 124 319 159 385 31 58 184 300 209 329 15 18 27 37 27
43 0 5 17 27 38 47 48 50 121 134 167 194 20 26 39 47 43 47 4 0 36 34 71 75
35 41 105 111 156 155 51 44 120 113 154 153 34 40 78 83 98 97 20 13 42 39
50 57 7 18 17 33 22 33 5 0 33 30 62 66 30 37 85 101 122 143 38 42 102 121
143 176 40 55 87 118 105 140 127 162 183 260 232 410 l27 79 -25 38 c-20 30
-32 38 -55 38 -35 0 -35 -2 -14 50 16 40 16 42 -6 65 -30 32 -74 46 -136 43
-37 -2 -48 0 -46 10 1 8 5 33 8 56 6 40 5 43 -37 71 -33 24 -53 30 -91 29 -54
-1 -54 -1 -36 75 10 45 9 53 -6 70 -10 11 -43 26 -73 32 -60 14 -70 21 -48 39
8 7 15 18 15 24 0 6 10 30 22 53 21 40 22 42 4 61 -9 11 -34 23 -54 27 -20 4
-48 13 -63 20 l-26 14 19 73 c24 96 18 108 -69 140 -80 30 -89 50 -49 103 35
46 34 88 -3 126 -16 16 -39 29 -50 29 -11 0 -23 5 -26 10 -3 6 -19 10 -36 10
-39 0 -37 15 12 80 38 50 41 58 35 99 -3 25 -13 52 -22 62 -19 21 -88 39 -150
39 l-47 0 7 103 7 103 -26 12 c-50 23 -103 15 -156 -24 l-49 -36 -1 54 c-1 92
-14 160 -34 174 -27 20 -69 17 -89 -5 -10 -11 -30 -22 -44 -26 -15 -3 -41 -20
-59 -37 -27 -26 -35 -29 -48 -18 -8 7 -15 17 -15 22 0 5 -11 33 -25 63 -26 58
-47 75 -92 75 -31 0 -123 -53 -123 -70 0 -26 -18 3 -29 44 -14 56 -41 83 -94
92 -40 6 -43 5 -94 -50 -29 -31 -55 -56 -58 -56 -3 0 -5 14 -5 31 0 17 -12 51
-27 76 l-26 45 -51 -7 c-28 -3 -53 -11 -55 -17 -2 -6 -19 -28 -38 -49 -31 -34
-46 -70 -69 -164 -2 -11 -10 -58 -16 -104 l-11 -83 -41 6 c-191 30 -396 54
-514 61 -45 2 -86 7 -91 10 -5 3 -4 22 4 43 25 71 37 143 30 180 -7 38 -70
129 -113 163 -47 37 -139 17 -206 -45 -37 -34 -66 -46 -66 -28 0 4 -20 29 -43
55 -40 43 -48 47 -89 47 -56 0 -132 -47 -156 -97 -9 -18 -19 -33 -23 -33 -4 0
-14 -3 -22 -6 -9 -3 -18 2 -21 13 -3 11 -31 41 -62 67 -60 53 -110 67 -154 44z
m48 -66 c2 -7 -7 -12 -23 -12 -24 0 -26 2 -15 15 14 17 31 16 38 -3z m386 2
c4 -11 1 -14 -11 -12 -9 2 -18 9 -21 16 -6 18 25 15 32 -4z m-354 -69 c0 -8
-9 -19 -19 -24 -26 -14 -40 18 -15 36 19 14 34 9 34 -12z m1708 -24 c4 -27
-12 -21 -29 10 -9 18 -8 20 8 17 10 -2 19 -14 21 -27z m-1820 7 c-6 -18 -28
-21 -28 -4 0 9 7 16 16 16 9 0 14 -5 12 -12z m-268 -67 c0 -9 -24 -21 -42 -21
-6 0 -6 6 2 15 14 16 40 20 40 6z m2077 -16 c7 -20 0 -27 -20 -19 -9 3 -13 12
-10 20 7 19 22 18 30 -1z m219 -3 c20 -14 25 -42 6 -42 -27 0 -45 17 -39 34 7
17 16 20 33 8z m269 -88 c0 -24 -13 -24 -44 -2 -20 15 -22 20 -11 33 11 13 16
14 34 2 12 -8 21 -23 21 -33z m-2815 7 c0 -10 -7 -21 -15 -25 -15 -5 -22 24
-8 37 12 13 23 7 23 -12z m3110 -76 c7 -8 10 -22 6 -30 -5 -14 -9 -14 -36 0
-16 8 -30 21 -30 28 0 18 46 19 60 2z m-3120 -14 c0 -10 -30 -24 -37 -17 -3 3
-2 9 2 15 8 13 35 15 35 2z m-150 -105 c0 -14 -29 -31 -38 -21 -6 6 18 35 29
35 5 0 9 -6 9 -14z m3491 4 c18 -10 26 -40 13 -53 -17 -17 -62 33 -48 54 7 11
11 11 35 -1z m-1578 -44 c116 -7 129 -17 39 -33 -71 -12 -74 -11 -135 17 -55
25 -58 28 -27 25 19 -3 74 -6 123 -9z m-267 -72 l39 -17 -35 -13 c-58 -21 -70
-18 -70 16 0 35 11 37 66 14z m-1431 -24 c-3 -5 -12 -10 -18 -10 -7 0 -6 4 3
10 19 12 23 12 15 0z m-75 -35 c0 -2 -10 -9 -22 -15 -22 -11 -22 -10 -4 4 21
17 26 19 26 11z m3537 -17 c37 -35 25 -70 -17 -48 -13 7 -20 21 -20 40 0 36 6
37 37 8z m-3860 -14 c3 -8 1 -20 -5 -26 -14 -14 -53 8 -46 27 8 20 43 19 51
-1z m2423 4 c-1 -33 -16 -41 -54 -27 -43 16 -46 26 -8 32 52 8 62 7 62 -5z
m-630 -12 c0 -2 -9 -6 -20 -9 -11 -3 -18 -1 -14 4 5 9 34 13 34 5z m356 -35
c5 -6 59 -33 119 -60 61 -28 110 -56 110 -63 0 -8 -35 -19 -100 -31 -118 -21
-144 -23 -166 -13 -12 5 -28 -3 -53 -24 -35 -31 -56 -33 -56 -4 0 10 -12 14
-42 14 -32 0 -69 13 -140 51 -54 27 -98 53 -98 57 1 19 19 29 59 31 24 1 51 6
60 10 9 5 52 12 95 16 44 4 91 11 105 15 37 12 95 12 107 1z m-2205 -11 c25 0
25 -26 0 -40 -27 -14 -28 -14 -40 21 -9 27 -8 30 5 25 9 -3 24 -6 35 -6z m-96
-80 c3 -5 -1 -10 -9 -10 -9 0 -16 5 -16 10 0 6 4 10 9 10 6 0 13 -4 16 -10z
m-145 -15 c0 -8 -4 -15 -9 -15 -13 0 -22 16 -14 24 11 11 23 6 23 -9z m380
-29 c0 -2 -8 -10 -17 -17 -16 -13 -17 -12 -4 4 13 16 21 21 21 13z m230 0 c0
-2 -8 -10 -17 -17 -16 -13 -17 -12 -4 4 13 16 21 21 21 13z m-540 -16 c0 -5
-7 -10 -15 -10 -8 0 -15 5 -15 10 0 6 7 10 15 10 8 0 15 -4 15 -10z m-72 -48
c2 -7 -5 -12 -17 -12 -14 0 -19 5 -14 15 6 17 25 15 31 -3z m411 6 c-2 -2 -24
-21 -49 -43 l-45 -40 40 43 c21 23 43 42 49 42 5 0 7 -1 5 -2z m751 -22 c0 -2
-8 -10 -17 -17 -16 -13 -17 -12 -4 4 13 16 21 21 21 13z m-1380 -16 c0 -5 -4
-10 -10 -10 -5 0 -10 5 -10 10 0 6 5 10 10 10 6 0 10 -4 10 -10z m4503 -24 c3
-8 3 -16 0 -19 -9 -10 -33 5 -33 19 0 18 26 18 33 0z m-3883 -9 c0 -2 -17 -19
-37 -38 l-38 -34 34 38 c33 34 41 42 41 34z m2254 -19 c-3 -13 -11 -25 -16
-27 -5 -2 -38 -25 -73 -52 -66 -50 -75 -50 -75 4 0 12 -7 31 -15 41 -22 30
-19 36 23 37 20 1 48 5 62 9 14 4 42 8 63 9 35 1 38 -1 31 -21z m-2764 2 c0
-5 -4 -10 -10 -10 -5 0 -10 5 -10 10 0 6 5 10 10 10 6 0 10 -4 10 -10z m2313
-7 c22 -7 22 -26 -2 -47 -21 -20 -35 -9 -47 38 -6 26 -5 28 12 22 10 -5 27
-11 37 -13z m-2449 -45 c-9 -14 -24 2 -24 25 1 21 1 21 15 3 8 -10 12 -23 9
-28z m2244 26 c41 -20 42 -44 3 -44 -43 0 -80 41 -48 53 6 3 12 6 13 6 0 1 15
-6 32 -15z m-2433 -23 c-3 -6 -11 -11 -17 -11 -6 0 -6 6 2 15 14 17 26 13 15
-4z m2550 -21 c3 -5 1 -10 -4 -10 -6 0 -11 5 -11 10 0 6 2 10 4 10 3 0 8 -4
11 -10z m253 -2 c18 -18 14 -38 -7 -38 -24 0 -33 13 -25 34 7 19 16 20 32 4z
m1319 -4 c-3 -3 -12 -4 -19 -1 -8 3 -5 6 6 6 11 1 17 -2 13 -5z m-5003 -20
c21 -20 20 -40 -1 -48 -20 -8 -69 36 -59 53 10 16 42 13 60 -5z m348 -11 c21
-19 24 -53 4 -53 -24 0 -60 36 -53 53 8 22 25 22 49 0z m3238 7 c0 -5 -4 -10
-10 -10 -5 0 -10 5 -10 10 0 6 5 10 10 10 6 0 10 -4 10 -10z m-3940 -29 c0
-12 -28 -22 -34 -12 -3 5 -3 11 1 15 9 9 33 7 33 -3z m1218 -3 c-3 -7 -13 -13
-23 -13 -10 0 -20 6 -22 13 -3 7 5 12 22 12 17 0 25 -5 23 -12z m-763 -8 c3
-5 2 -10 -4 -10 -5 0 -13 5 -16 10 -3 6 -2 10 4 10 5 0 13 -4 16 -10z m619
-22 c5 -9 7 -20 3 -24 -9 -10 -77 22 -77 36 0 17 62 7 74 -12z m-130 -3 c4
-10 -1 -15 -14 -15 -13 0 -18 5 -14 15 4 8 10 15 14 15 4 0 10 -7 14 -15z
m427 -33 c8 -21 6 -23 -19 -20 -20 2 -28 9 -30 26 -3 19 0 23 19 20 12 -2 26
-13 30 -26z m4636 22 c-3 -3 -12 -4 -19 -1 -8 3 -5 6 6 6 11 1 17 -2 13 -5z
m-3917 -8 c0 -2 -8 -10 -17 -17 -16 -13 -17 -12 -4 4 13 16 21 21 21 13z
m1430 -20 c0 -2 -9 -6 -20 -9 -11 -3 -18 -1 -14 4 5 9 34 13 34 5z m118 -3
c-10 -2 -28 -2 -40 0 -13 2 -5 4 17 4 22 1 32 -1 23 -4z m-4003 -13 c-3 -5
-10 -10 -16 -10 -5 0 -9 5 -9 10 0 6 7 10 16 10 8 0 12 -4 9 -10z m1925 7 c0
-2 -10 -12 -22 -23 l-23 -19 19 23 c18 21 26 27 26 19z m3717 -3 c-3 -3 -12
-4 -19 -1 -8 3 -5 6 6 6 11 1 17 -2 13 -5z m767 -10 c18 -7 22 -48 4 -42 -6 2
-15 14 -19 26 -9 24 -8 25 15 16z m-784 -38 c0 -2 -7 -7 -16 -10 -8 -3 -12 -2
-9 4 6 10 25 14 25 6z m260 -10 c0 -2 -7 -7 -16 -10 -8 -3 -12 -2 -9 4 6 10
25 14 25 6z m550 -51 c0 -28 -12 -32 -30 -10 -14 16 -6 35 16 35 8 0 14 -10
14 -25z m-1240 -39 c0 -2 -7 -7 -16 -10 -8 -3 -12 -2 -9 4 6 10 25 14 25 6z
m-5334 -41 c-11 -8 -25 -15 -30 -15 -6 1 0 7 14 15 32 19 40 18 16 0z m2111 9
c-3 -3 -12 -4 -19 -1 -8 3 -5 6 6 6 11 1 17 -2 13 -5z m663 -8 c0 -2 -7 -7
-16 -10 -8 -3 -12 -2 -9 4 6 10 25 14 25 6z m3170 -10 c0 -2 -7 -7 -16 -10 -8
-3 -12 -2 -9 4 6 10 25 14 25 6z m317 -12 c-3 -3 -12 -4 -19 -1 -8 3 -5 6 6 6
11 1 17 -2 13 -5z m-494 -11 c-7 -2 -19 -2 -25 0 -7 3 -2 5 12 5 14 0 19 -2
13 -5z m881 -19 c16 -16 21 -34 9 -34 -10 0 -43 32 -43 42 0 13 17 9 34 -8z
m-4211 -1 c-7 -2 -19 -2 -25 0 -7 3 -2 5 12 5 14 0 19 -2 13 -5z m187 -17 c0
-2 -8 -10 -17 -17 -16 -13 -17 -12 -4 4 13 16 21 21 21 13z m3907 -2 c-3 -3
-12 -4 -19 -1 -8 3 -5 6 6 6 11 1 17 -2 13 -5z m143 -64 c0 -5 -4 -10 -10 -10
-5 0 -10 5 -10 10 0 6 5 10 10 10 6 0 10 -4 10 -10z m100 -125 c10 -12 10 -15
-4 -15 -9 0 -16 7 -16 15 0 8 2 15 4 15 2 0 9 -7 16 -15z m-5202 -55 c-7 -10
-14 -17 -17 -15 -4 4 18 35 25 35 2 0 -1 -9 -8 -20z m2872 16 c0 -2 -8 -10
-17 -17 -16 -13 -17 -12 -4 4 13 16 21 21 21 13z m2350 -26 c0 -5 -4 -10 -10
-10 -5 0 -10 5 -10 10 0 6 5 10 10 10 6 0 10 -4 10 -10z m-1950 -13 c0 -2 -15
-16 -32 -33 l-33 -29 29 33 c28 30 36 37 36 29z m2060 -117 c12 -8 11 -10 -7
-10 -12 0 -25 5 -28 10 -8 13 15 13 35 0z m-6457 -35 c-3 -9 -8 -14 -10 -11
-3 3 -2 9 2 15 9 16 15 13 8 -4z m6638 -125 c12 0 11 -27 -1 -35 -14 -9 -40
13 -40 32 0 10 6 13 16 9 9 -3 20 -6 25 -6z m59 -60 c-7 -16 -19 -30 -26 -30
-19 0 -18 19 1 26 8 3 17 15 21 26 3 11 8 17 11 14 3 -3 0 -19 -7 -36z m80
-130 c0 -5 -4 -10 -10 -10 -5 0 -10 5 -10 10 0 6 5 10 10 10 6 0 10 -4 10 -10z
m-45 -49 c10 -17 -12 -21 -25 -6 -10 12 -10 15 3 15 9 0 18 -4 22 -9z m-4425
-311 c-8 -5 -19 -10 -25 -10 -5 0 -3 5 5 10 8 5 20 10 25 10 6 0 3 -5 -5 -10z
m3640 -273 c0 -2 -10 -12 -22 -23 l-23 -19 19 23 c18 21 26 27 26 19z m-90
-60 c0 -2 -10 -12 -22 -23 l-23 -19 19 23 c18 21 26 27 26 19z m-60 -50 c0 -2
-12 -14 -27 -28 l-28 -24 24 28 c23 25 31 32 31 24z m-50 -60 c0 -2 -15 -16
-32 -33 l-33 -29 29 33 c28 30 36 37 36 29z m-110 -122 c-24 -25 -46 -45 -49
-45 -3 0 15 20 39 45 24 25 46 45 49 45 3 0 -15 -20 -39 -45z m-60 -68 c0 -2
-10 -12 -22 -23 l-23 -19 19 23 c18 21 26 27 26 19z m-60 -60 c0 -1 -26 -27
-57 -57 l-58 -55 55 58 c50 53 60 62 60 54z m-140 -150 c0 -2 -15 -16 -32 -33
l-33 -29 29 33 c28 30 36 37 36 29z m-70 -70 c0 -2 -17 -19 -37 -38 l-38 -34
34 38 c33 34 41 42 41 34z m-80 -70 c0 -1 -39 -41 -87 -87 l-88 -85 85 88 c79
81 90 92 90 84z m-210 -220 c0 -2 -10 -12 -22 -23 l-23 -19 19 23 c18 21 26
27 26 19z m-90 -131 c0 -2 -8 -10 -17 -17 -16 -13 -17 -12 -4 4 13 16 21 21
21 13z m-2585 -401 c-34 -30 -91 -70 -75 -52 14 14 105 87 110 87 3 0 -13 -16
-35 -35z m-167 -82 c-10 -2 -26 -2 -35 0 -10 3 -2 5 17 5 19 0 27 -2 18 -5z
m469 -1360 c-3 -10 -5 -4 -5 12 0 17 2 24 5 18 2 -7 2 -21 0 -30z m-467 -537
c0 -2 -8 -10 -17 -17 -16 -13 -17 -12 -4 4 13 16 21 21 21 13z m-54 -61 c-11
-8 -25 -15 -30 -15 -6 1 0 7 14 15 32 19 40 18 16 0z m-69 -21 c-3 -3 -12 -4
-19 -1 -8 3 -5 6 6 6 11 1 17 -2 13 -5z m550 -16 c-3 -8 -6 -5 -6 6 -1 11 2
17 5 13 3 -3 4 -12 1 -19z m-702 -1888 c-21 -22 -46 -40 -55 -39 -10 0 -9 3 5
9 11 4 33 22 49 39 17 17 32 31 35 31 3 0 -13 -18 -34 -40z m-152 -47 c-7 -2
-19 -2 -25 0 -7 3 -2 5 12 5 14 0 19 -2 13 -5z m64 1 c-3 -3 -12 -4 -19 -1 -8
3 -5 6 6 6 11 1 17 -2 13 -5z m5066 -361 c-7 -2 -21 -2 -30 0 -10 3 -4 5 12 5
17 0 24 -2 18 -5z m77 -93 c0 -5 -12 -10 -27 -9 l-28 1 25 8 c14 4 26 8 28 9
1 1 2 -3 2 -9z m-111 -27 c-7 -10 -14 -19 -15 -21 -1 -1 -4 6 -7 18 -4 15 0
20 15 20 18 0 19 -2 7 -17z m-7709 -33 c0 -5 -7 -10 -16 -10 -8 0 -12 5 -9 10
3 6 10 10 16 10 5 0 9 -4 9 -10z m7783 4 c8 -8 -50 -84 -64 -84 -17 0 -9 28
17 59 26 31 35 36 47 25z m-313 -30 c0 -33 -33 -30 -38 4 -3 17 2 22 17 22 16
0 21 -6 21 -26z m390 -26 c0 -10 -7 -18 -15 -18 -15 0 -21 40 -8 53 9 9 23
-13 23 -35z m-301 1 c12 -35 9 -44 -20 -59 -18 -10 -19 -7 -19 40 0 59 21 69
39 19z m-168 -45 c4 -42 2 -63 -7 -73 -21 -23 -28 -4 -14 38 9 30 10 47 2 71
-9 24 -9 31 1 27 7 -2 15 -30 18 -63z m-77 30 c31 -12 8 -104 -25 -104 -15 0
-18 5 -14 23 3 12 8 36 10 52 2 17 4 31 4 33 1 3 8 2 25 -4z m-7271 -39 c23
-49 22 -51 -25 -50 -55 1 -98 14 -98 29 0 30 32 56 69 56 33 0 39 -4 54 -35z
m7192 15 c9 -15 -4 -50 -19 -50 -8 0 -19 6 -25 14 -9 11 -8 18 4 30 19 18 31
20 40 6z m235 -25 c0 -8 -7 -15 -15 -15 -8 0 -15 7 -15 15 0 8 7 15 15 15 8 0
15 -7 15 -15z m360 -2 c-1 -21 -19 -35 -39 -28 -26 8 -27 22 -3 28 28 8 42 7
42 0z m-190 -6 c0 -9 -73 -224 -82 -241 -19 -39 -73 -115 -81 -116 -4 0 -2 9
5 19 10 16 9 30 -4 70 -14 43 -14 52 -2 62 20 17 17 32 -11 59 -15 14 -25 35
-25 51 0 24 5 28 39 34 24 4 48 2 61 -5 33 -18 53 -5 45 29 -5 23 -2 30 12 34
23 6 43 8 43 4z m255 -38 c8 -24 7 -24 -22 -33 -18 -6 -23 -3 -23 11 0 19 18
43 31 43 4 0 11 -9 14 -21z m-772 -28 c18 -30 14 -41 -13 -41 -28 0 -43 25
-30 49 14 28 22 26 43 -8z m584 12 c16 -21 52 -97 62 -133 6 -19 3 -27 -13
-35 -16 -8 -22 -22 -24 -58 -4 -57 -21 -69 -101 -71 -48 -1 -57 -4 -66 -24 -9
-21 -41 -39 -51 -29 -3 3 5 16 18 30 13 15 37 42 53 62 25 29 35 34 57 30 37
-9 43 9 19 60 -26 56 -26 56 6 53 35 -4 44 28 15 51 -16 13 -18 22 -10 49 10
37 15 39 35 15z m-7624 -20 c8 -16 18 -38 21 -50 6 -20 4 -23 -18 -23 -24 0
-56 23 -56 41 0 5 7 9 15 9 9 0 15 9 15 25 0 32 6 32 23 -2z m6941 2 c-3 -8 3
-30 14 -49 30 -51 3 -56 -55 -9 l-45 37 34 17 c41 22 59 24 52 4z m-7048 -37
c20 -41 54 -78 70 -78 15 0 47 -48 39 -60 -3 -6 -12 -10 -20 -10 -18 0 -75 48
-75 63 0 7 -16 22 -35 35 -36 23 -44 49 -23 70 18 18 26 15 44 -20z m7254 -4
c0 -17 -1 -17 -37 -3 l-28 12 25 7 c30 8 40 4 40 -16z m590 -5 c10 -22 10 -33
1 -42 -8 -8 -11 -5 -11 12 0 12 -5 31 -10 42 -6 10 -7 19 -2 19 5 0 15 -14 22
-31z m99 -61 c1 -21 -5 -28 -31 -37 -37 -13 -49 -7 -18 9 18 10 21 19 18 51
-2 21 1 40 7 42 11 4 23 -25 24 -65z m-507 2 c5 0 4 -9 -2 -20 -13 -24 -58
-27 -67 -4 -3 8 4 26 18 40 23 25 24 25 33 5 5 -12 13 -21 18 -21z m-505 -13
c-4 -12 -55 -42 -61 -36 -3 3 -1 22 5 42 10 37 10 37 34 20 13 -10 23 -22 22
-26z m259 22 c4 -7 26 -10 59 -6 l53 5 25 -56 c13 -31 24 -58 22 -60 -1 -1
-15 4 -31 12 -15 9 -39 13 -51 10 -32 -8 -83 14 -83 36 0 10 -11 27 -25 38
-14 11 -25 23 -25 26 0 11 49 6 56 -5z m-371 -46 c-9 -35 -9 -36 -34 -28 -26
8 -27 30 -3 44 32 19 45 13 37 -16z m299 1 c16 -6 23 -34 8 -34 -10 0 -32 22
-32 32 0 10 3 10 24 2z m-7128 -40 c20 -19 33 -38 30 -41 -6 -6 -84 57 -85 70
-2 17 22 5 55 -29z m213 -22 c8 -28 6 -33 -25 -57 -19 -15 -42 -24 -50 -21
-11 4 -7 17 22 61 20 30 39 54 41 52 2 -3 8 -18 12 -35z m7249 -35 c-3 -16 -6
-14 -26 13 -19 25 -21 34 -11 46 10 12 14 10 26 -13 8 -15 13 -36 11 -46z
m-733 53 c3 -5 -1 -10 -9 -10 -9 0 -16 5 -16 10 0 6 4 10 9 10 6 0 13 -4 16
-10z m188 -41 c-40 -37 -63 -49 -63 -31 0 14 15 29 54 55 55 37 60 24 9 -24z
m-6943 -29 c0 -3 -14 -5 -30 -5 -23 0 -32 5 -36 22 -10 39 6 46 37 16 16 -15
29 -30 29 -33z m7940 50 c0 -5 -4 -10 -10 -10 -5 0 -10 5 -10 10 0 6 5 10 10
10 6 0 10 -4 10 -10z m-1274 -25 c-3 -8 2 -19 12 -24 25 -14 58 -99 44 -113
-8 -8 -18 -4 -36 14 -29 28 -50 138 -26 138 7 0 10 -7 6 -15z m1210 -10 c7
-30 1 -40 -21 -32 -20 8 -20 57 0 57 8 0 17 -11 21 -25z m-1076 -5 c0 -5 -15
-10 -32 -10 -25 0 -29 3 -18 10 20 13 50 13 50 0z m1205 -25 c0 -18 -4 -24
-13 -20 -7 3 -20 5 -28 5 -8 0 -14 5 -14 10 0 6 9 10 20 10 12 0 20 7 20 17 0
26 13 6 15 -22z m-1396 -27 c11 -44 6 -46 -32 -12 l-29 24 24 19 c13 11 24 16
25 13 1 -4 6 -24 12 -44z m746 22 c17 -32 20 -76 6 -85 -5 -3 -21 0 -35 6 -23
11 -26 18 -26 61 0 41 3 48 20 48 11 0 26 -12 35 -30z m-289 9 c9 -15 -28 -50
-43 -41 -18 11 -4 52 18 52 10 0 21 -5 25 -11z m89 -20 c-6 -27 -4 -31 24 -42
39 -14 48 -45 29 -95 -9 -25 -21 -38 -36 -40 -29 -4 -28 12 4 35 29 21 24 53
-8 53 -29 0 -78 29 -78 46 0 15 52 74 65 74 4 0 4 -14 0 -31z m-7255 -14 c0
-14 -4 -25 -9 -25 -12 0 -19 21 -13 38 8 21 22 13 22 -13z m7538 13 c18 -18
14 -38 -8 -38 -15 0 -20 7 -20 25 0 27 9 32 28 13z m-7129 -44 c12 -20 20 -39
17 -41 -6 -6 -116 30 -116 39 0 11 43 38 61 38 9 0 27 -16 38 -36z m6626 6
c-10 -11 -23 -20 -28 -20 -6 0 -2 9 8 20 10 11 23 20 28 20 6 0 2 -9 -8 -20z
m-6941 -12 c20 -29 20 -58 1 -58 -17 0 -35 -39 -35 -75 0 -14 -8 -29 -19 -34
-26 -14 -87 27 -83 55 5 27 36 56 64 59 12 1 27 3 32 4 4 0 5 12 2 26 -12 46
12 60 38 23z m7741 -20 c-9 -40 -12 -45 -26 -31 -6 6 -6 18 0 36 15 39 34 35
26 -5z m151 22 c20 -8 24 -14 16 -22 -13 -13 -62 4 -62 22 0 13 12 13 46 0z
m-1387 -28 c28 -23 32 -32 26 -52 l-8 -24 -22 26 c-13 15 -25 33 -28 40 -3 11
-8 11 -26 0 -25 -15 -27 -5 -3 19 23 23 22 23 61 -9z m-6373 -29 c-2 -3 -9 -2
-15 2 -8 4 -7 13 1 28 l13 22 3 -23 c2 -13 1 -26 -2 -29z m6921 28 c10 -16 7
-20 -24 -35 -33 -16 -73 -14 -73 3 0 14 25 39 45 44 35 8 40 7 52 -12z m-172
-55 c22 -79 16 -101 -13 -54 -12 20 -32 38 -45 42 -34 9 -65 7 -72 -5 -10 -15
24 -49 49 -49 24 -1 70 -65 62 -86 -3 -8 -16 -14 -30 -14 -35 0 -43 -20 -18
-41 42 -34 17 -129 -34 -129 -16 0 -24 6 -24 18 0 9 -14 32 -31 50 -28 29 -30
36 -23 78 5 32 10 42 17 35 13 -13 44 -14 51 -2 3 5 -6 25 -19 46 -22 32 -24
41 -15 75 13 48 65 100 101 100 24 0 28 -5 44 -64z m785 39 c0 -23 -2 -24 -20
-15 -21 11 -25 22 -13 33 15 16 33 6 33 -18z m-132 -19 c7 -4 12 -14 12 -23 0
-11 -6 -14 -22 -8 -13 4 -47 9 -75 12 -50 5 -61 11 -47 25 8 8 118 3 132 -6z
m-7260 -12 l37 -15 -24 -20 c-29 -24 -40 -24 -48 -1 -3 9 -13 25 -21 35 -14
15 -13 17 2 17 9 0 33 -7 54 -16z m6829 4 c4 -7 8 -30 8 -52 1 -46 25 -68 66
-59 41 8 38 -16 -6 -44 -52 -34 -69 -31 -61 11 9 46 -7 54 -41 20 -31 -31 -56
-23 -61 19 -2 18 7 35 32 61 20 19 36 40 36 46 0 14 17 13 27 -2z m201 3 c9
-5 25 -12 36 -15 17 -6 17 -8 4 -29 -23 -33 -64 -55 -79 -40 -10 10 -9 21 1
53 15 45 14 44 38 31z m-918 -4 c0 -1 4 -17 9 -35 10 -35 5 -39 -23 -19 -13
10 -16 20 -12 35 4 12 12 22 17 22 5 0 9 -1 9 -3z m287 -14 c3 -9 0 -37 -7
-62 -7 -25 -14 -56 -14 -68 -1 -19 -7 -23 -32 -23 -32 0 -45 -14 -37 -37 3 -7
15 -13 27 -13 13 0 25 -2 28 -5 9 -9 -18 -127 -40 -175 -11 -25 -30 -56 -41
-70 l-21 -25 0 26 c0 15 -9 37 -19 50 -13 16 -17 34 -14 52 5 25 9 27 54 27
56 0 69 13 35 35 -33 22 -102 17 -100 -7 3 -30 -25 -18 -44 18 -9 17 -8 25 7
38 9 9 25 16 33 16 24 0 30 28 11 56 -15 23 -15 26 3 40 12 9 33 13 57 10 48
-5 56 10 32 61 -17 36 -17 37 5 55 28 23 69 23 77 1z m-6257 -75 c0 -10 -3
-18 -6 -18 -16 0 -94 23 -94 28 0 4 12 16 28 28 l27 22 23 -21 c12 -11 22 -29
22 -39z m6080 10 c0 -4 -9 -8 -19 -8 -19 0 -31 18 -31 48 0 12 5 11 25 -8 14
-13 25 -27 25 -32z m-6400 33 c0 -17 38 -22 59 -9 24 15 29 11 46 -38 19 -55
9 -71 -24 -40 -19 18 -40 27 -69 29 -43 2 -46 6 -36 45 6 21 24 31 24 13z
m6243 -63 c12 -10 30 -18 40 -18 21 0 21 -2 3 -44 -18 -43 -42 -57 -73 -43
-16 7 -22 15 -17 26 4 9 9 31 12 49 4 28 1 34 -17 39 -27 7 -27 18 2 38 21 15
22 14 25 -7 2 -13 13 -31 25 -40z m1131 46 c44 -6 46 -8 46 -38 0 -18 -6 -41
-14 -52 -14 -18 -16 -17 -60 31 -64 69 -63 71 28 59z m-84 -76 c33 -37 36 -50
16 -67 -10 -9 -15 -8 -20 4 -3 8 -12 15 -21 15 -11 0 -15 11 -15 40 0 22 2 40
5 40 3 0 19 -15 35 -32z m-7085 13 c3 -6 -3 -15 -14 -21 -21 -11 -37 2 -26 20
8 13 32 13 40 1z m129 -48 c3 -25 5 -48 3 -50 -2 -1 -13 11 -25 27 -19 25 -20
33 -10 50 19 30 25 25 32 -27z m6860 35 c3 -7 7 -28 10 -46 5 -27 3 -33 -11
-30 -24 5 -37 31 -29 61 7 28 24 36 30 15z m-7166 -14 c20 -6 14 -42 -10 -58
-29 -20 -38 -20 -66 4 -17 14 -21 25 -16 44 5 22 10 24 42 19 21 -2 43 -6 50
-9z m-183 -58 c14 -5 15 -9 5 -21 -30 -36 -69 8 -55 62 l7 28 13 -31 c7 -17
21 -34 30 -38z m45 60 c0 -3 -4 -8 -10 -11 -5 -3 -10 -1 -10 4 0 6 5 11 10 11
6 0 10 -2 10 -4z m7009 -53 c0 -25 -1 -26 -9 -8 -12 27 -12 35 0 35 6 0 10
-12 9 -27z m-6610 -32 c42 -50 56 -99 25 -87 -9 3 -24 6 -35 6 -13 0 -19 7
-19 21 0 25 -16 57 -43 87 l-20 22 25 0 c19 0 37 -14 67 -49z m6831 40 c0 -5
3 -16 6 -25 5 -13 -1 -16 -28 -16 -46 0 -54 10 -26 32 25 19 48 23 48 9z
m-7366 -70 c-9 -11 -24 15 -23 42 l1 32 12 -35 c8 -19 12 -37 10 -39z m7230 1
c7 -46 6 -66 -4 -77 -19 -23 -24 -12 -28 71 -3 61 -1 75 10 72 7 -3 17 -30 22
-66z m-154 21 c0 -33 -24 -25 -28 10 -3 21 0 26 12 21 9 -3 16 -17 16 -31z
m-6629 -25 c8 -15 4 -15 -28 4 -50 29 -50 28 -33 38 16 10 44 -10 61 -42z
m5849 40 c-1 -17 -35 -58 -49 -58 -18 0 -13 22 11 47 24 26 38 30 38 11z
m-110 -23 c-7 -8 -17 -15 -22 -15 -6 0 -5 7 2 15 7 8 17 15 22 15 6 0 5 -7 -2
-15z m-5967 -15 c18 0 19 -2 7 -10 -18 -12 -70 -13 -70 -2 0 15 13 23 28 17 7
-3 23 -5 35 -5z m6167 -9 c15 -28 13 -31 -20 -31 -25 0 -30 4 -30 25 0 31 34
35 50 6z m-5670 -51 c0 -15 -45 -38 -55 -28 -9 9 -7 37 5 62 l14 28 18 -22
c10 -12 18 -30 18 -40z m5814 44 c8 -21 9 -21 -38 -29 -36 -7 -38 -7 -27 13
18 33 55 42 65 16z m-6459 -39 c0 -13 -8 -21 -22 -23 -19 -3 -23 1 -23 23 0
22 4 26 23 23 14 -2 22 -10 22 -23z m210 -5 c-3 -5 -10 -10 -16 -10 -5 0 -9 5
-9 10 0 6 7 10 16 10 8 0 12 -4 9 -10z m143 -43 c7 -27 20 -51 27 -53 8 -3 26
8 42 26 37 41 67 34 58 -14 -12 -58 -16 -65 -44 -71 -16 -3 -31 -14 -34 -24
-2 -9 -21 -22 -44 -29 -83 -25 -160 -10 -210 40 -18 18 -42 42 -55 52 l-22 20
28 7 c16 4 37 16 47 25 18 17 21 16 57 -3 48 -26 62 -20 62 26 0 46 6 53 44
49 27 -3 32 -9 44 -51z m69 47 c-3 -3 -12 -4 -19 -1 -8 3 -5 6 6 6 11 1 17 -2
13 -5z m5640 -29 c-23 -36 -40 -40 -45 -11 -5 24 16 46 44 46 l23 0 -22 -35z
m933 25 c0 -5 -9 -10 -20 -10 -11 0 -20 5 -20 10 0 6 9 10 20 10 11 0 20 -4
20 -10z m-770 -15 c0 -16 -27 -20 -57 -8 -15 6 -13 9 12 14 17 4 33 7 38 8 4
0 7 -6 7 -14z m582 -35 c4 -32 -13 -80 -28 -80 -7 0 -18 -2 -26 -5 -7 -3 -19
-1 -26 3 -10 7 -8 18 6 53 11 24 22 52 25 62 6 15 10 16 26 5 11 -7 21 -24 23
-38z m-6702 30 c0 -5 -9 -10 -20 -10 -11 0 -20 5 -20 10 0 6 9 10 20 10 11 0
20 -4 20 -10z m6034 -48 c-7 -2 -23 -2 -34 0 -19 3 -20 4 -5 26 l16 22 19 -22
c15 -19 16 -24 4 -26z m305 21 c-21 -27 -32 -33 -62 -33 -38 0 -30 20 14 36
52 19 65 18 48 -3z m70 -19 c-6 -7 -15 -11 -21 -8 -5 3 -4 12 3 20 6 7 15 11
21 8 5 -3 4 -12 -3 -20z m453 4 c48 -14 44 -32 -9 -36 -30 -2 -42 1 -47 13 -6
17 0 35 11 35 3 0 23 -5 45 -12z m-6278 -4 c9 -4 21 -15 27 -26 8 -15 8 -19 0
-13 -7 4 -18 1 -26 -5 -11 -9 -25 -8 -61 6 l-47 18 34 12 c40 15 52 16 73 8z
m5226 -24 c0 -5 -10 -15 -22 -21 -23 -12 -23 -12 -4 10 21 23 26 26 26 11z
m360 1 c0 -5 -13 -19 -30 -31 -28 -20 -30 -20 -30 -3 0 11 5 24 12 31 14 14
48 16 48 3z m260 -21 c0 -5 -7 -10 -16 -10 -8 0 -12 5 -9 10 3 6 10 10 16 10
5 0 9 -4 9 -10z m344 -15 c3 -9 0 -15 -8 -15 -8 0 -16 7 -20 15 -3 9 0 15 8
15 8 0 16 -7 20 -15z m-6284 -11 c55 -22 51 -37 -7 -28 -57 8 -55 7 -47 28 8
20 5 20 54 0z m5560 6 c0 -5 -17 -14 -38 -19 -21 -6 -47 -19 -59 -30 -23 -21
-33 -18 -33 10 0 23 15 32 70 40 25 3 48 7 53 8 4 0 7 -3 7 -9z m286 -8 c12
-9 24 -29 26 -44 6 -32 -3 -34 -64 -16 -33 10 -41 9 -49 -3 -16 -25 -10 -37
31 -56 37 -17 40 -21 40 -60 0 -38 -19 -73 -39 -73 -20 0 -33 34 -33 81 0 47
-2 52 -29 61 -16 5 -29 14 -29 18 0 5 -9 12 -20 15 -21 7 -26 30 -10 55 7 12
12 12 22 2 21 -21 58 -14 68 13 11 30 54 34 86 7z m-5666 -51 c0 -4 -15 -7
-34 -7 -33 0 -33 1 -25 30 5 17 9 33 9 36 1 8 50 -50 50 -59z m5777 27 c-3 -8
-6 -5 -6 6 -1 11 2 17 5 13 3 -3 4 -12 1 -19z m-632 2 c-3 -5 -19 -19 -35 -30
-25 -18 -30 -19 -30 -6 0 9 6 16 14 16 8 0 16 7 20 15 3 8 13 15 21 15 9 0 14
-4 10 -10z m-5859 -92 c-16 -27 -26 -11 -26 40 l0 47 18 -35 c13 -25 15 -40 8
-52z m5717 20 c-31 -46 -50 -57 -59 -35 -3 9 11 30 38 55 51 48 61 39 21 -20z
m907 58 c0 -3 -4 -8 -10 -11 -5 -3 -10 -1 -10 4 0 6 5 11 10 11 6 0 10 -2 10
-4z m163 -16 c5 -4 6 -17 3 -28 -6 -19 -8 -19 -36 6 -17 15 -30 30 -30 35 0
10 50 0 63 -13z m-667 -10 l28 -11 -35 -21 c-59 -37 -120 -31 -88 9 12 14 43
31 61 32 4 1 19 -4 34 -9z m564 -14 c0 -8 -11 -16 -25 -18 -24 -5 -25 0 -2 29
11 15 27 8 27 -11z m-800 -35 c0 -33 -16 -51 -47 -51 -32 0 -30 33 4 64 31 29
43 26 43 -13z m-5351 23 c22 -5 31 -12 31 -26 0 -15 -5 -18 -22 -12 -30 9 -78
33 -78 39 0 7 32 6 69 -1z m-126 -43 c25 -43 21 -78 -12 -112 -37 -37 -65 -37
-91 -1 -20 27 -23 28 -70 18 -38 -7 -52 -7 -65 4 -20 17 -58 90 -51 97 3 3 32
1 64 -6 51 -10 65 -9 112 8 76 27 93 26 113 -8z m327 -6 c19 -14 39 -25 45
-25 6 0 19 -17 30 -37 11 -20 37 -54 58 -76 44 -46 45 -56 12 -87 -23 -22 -25
-22 -50 -6 -14 10 -25 25 -24 34 3 38 -1 42 -44 42 -37 0 -46 4 -55 25 -15 32
-15 55 -2 55 6 0 10 11 10 23 0 16 -9 28 -26 36 -21 9 -24 14 -14 26 16 20 20
19 60 -10z m5691 -58 c-8 -8 -11 1 -11 29 0 53 14 67 18 19 2 -21 -1 -42 -7
-48z m167 61 c21 -21 13 -37 -22 -43 -40 -8 -79 2 -73 18 2 6 19 16 38 23 44
16 43 16 57 2z m-828 -7 c0 -5 -7 -14 -15 -21 -16 -14 -18 -10 -9 14 6 17 24
22 24 7z m-5245 -22 c24 -14 33 -25 27 -31 -17 -17 -67 5 -70 30 -4 27 -2 27
43 1z m5687 -4 c39 -27 41 -47 7 -66 -16 -8 -19 -6 -19 14 0 39 -50 69 -50 30
-1 -21 -23 -53 -37 -53 -5 0 -18 9 -28 20 -17 18 -16 20 13 50 37 37 66 38
114 5z m-6135 -27 c-21 -13 -37 -9 -37 11 0 25 22 33 37 13 10 -13 10 -17 0
-24z m5570 12 c17 -10 37 -28 43 -39 10 -19 8 -21 -25 -22 -19 -1 -41 -2 -47
-3 -16 -1 -33 46 -25 68 8 21 15 20 54 -4z m277 -32 c3 -13 6 -31 6 -41 0 -15
-3 -15 -20 -5 -15 10 -22 10 -32 0 -9 -9 -7 -18 10 -42 12 -16 22 -36 22 -45
0 -25 -19 -55 -35 -55 -23 0 -18 -17 15 -52 23 -23 30 -40 30 -69 0 -38 -1
-39 -35 -39 -25 0 -33 4 -29 14 3 7 -9 35 -27 61 l-32 48 21 66 c12 37 22 73
22 80 0 16 58 101 69 101 5 0 11 -10 15 -22z m-109 2 c3 -5 -1 -23 -10 -40
-13 -26 -19 -29 -31 -19 -8 6 -14 19 -14 28 0 32 40 55 55 31z m218 -52 c-2
-5 -10 -8 -18 -8 -19 0 -29 38 -14 56 11 13 14 11 24 -13 7 -15 10 -31 8 -35z
m-5899 3 c18 -19 12 -56 -8 -46 -6 3 -19 8 -28 11 -19 7 -21 14 -12 38 8 21
27 20 48 -3z m5376 9 c0 -5 -5 -10 -11 -10 -5 0 -7 5 -4 10 3 6 8 10 11 10 2
0 4 -4 4 -10z m-5011 -35 c23 -34 23 -65 0 -65 -14 0 -79 39 -79 48 0 8 42 52
49 52 3 0 17 -16 30 -35z m129 23 c-2 -6 -14 -18 -26 -26 -21 -14 -22 -13 -22
12 0 21 5 26 26 26 15 0 24 -5 22 -12z m5632 -37 c0 -16 -7 -37 -16 -45 -20
-21 -61 -20 -72 0 -7 13 -13 14 -30 5 -11 -6 -24 -20 -27 -31 -9 -28 -42 -45
-61 -29 -19 16 -18 38 6 77 19 30 24 33 53 26 48 -10 84 -7 109 10 32 22 38
20 38 -13z m-6015 -17 c-8 -16 -15 -37 -15 -47 0 -14 -5 -17 -22 -11 -31 9
-31 9 -24 39 4 17 18 31 39 40 18 7 33 12 35 11 1 -2 -4 -16 -13 -32z m2555
33 c0 -2 -10 -12 -22 -23 l-23 -19 19 23 c18 21 26 27 26 19z m2950 -32 c29
-15 38 -34 23 -48 -3 -4 -14 0 -24 9 -26 23 -73 15 -77 -14 -3 -19 4 -26 37
-39 44 -17 47 -26 30 -86 -9 -33 -12 -36 -29 -27 -19 10 -60 -1 -60 -17 0 -12
33 -43 47 -43 7 0 13 -5 13 -11 0 -22 -40 -144 -56 -169 -14 -24 -15 -23 -9
23 5 36 2 55 -10 74 -15 22 -15 29 -4 50 12 22 10 26 -18 52 -41 38 -35 68 19
89 46 18 48 38 8 77 -34 33 -36 42 -14 73 18 27 79 30 124 7z m629 -14 c38
-36 38 -40 4 -33 -32 5 -67 37 -58 52 10 16 21 12 54 -19z m-898 9 c22 0 27
-38 7 -58 -18 -18 -28 -15 -28 10 0 12 -8 30 -17 41 -17 20 -17 20 0 14 10 -4
27 -7 38 -7z m-5141 -32 c10 -31 9 -35 -23 -63 -18 -16 -37 -39 -40 -49 -14
-36 -17 -9 -6 45 11 55 33 99 48 99 5 0 14 -15 21 -32z m344 24 c2 -4 1 -14
-3 -21 -11 -18 -45 -10 -49 12 -3 12 3 17 22 17 14 0 27 -4 30 -8z m2052 -7
c-11 -8 -31 -15 -45 -14 -23 1 -22 2 7 9 18 4 36 10 39 14 4 3 9 6 12 6 3 0
-3 -7 -13 -15z m2670 -22 c-10 -10 -19 5 -10 18 6 11 8 11 12 0 2 -7 1 -15 -2
-18z m-4922 -41 c3 -5 -15 -9 -39 -9 -43 0 -45 2 -45 29 l0 28 39 -20 c22 -11
42 -24 45 -28z m306 -19 c0 -14 -40 -44 -50 -38 -15 9 -19 66 -7 86 12 19 13
19 34 -8 13 -15 23 -33 23 -40z m189 5 c-23 -16 -104 -48 -120 -48 -33 0 -16
24 26 36 24 6 42 19 49 33 l9 22 21 -20 c11 -11 18 -22 15 -23z m4581 12 c0
-23 -4 -30 -20 -30 -23 0 -24 1 -8 35 15 34 28 32 28 -5z m408 -50 c0 -32 -1
-33 -8 -10 -4 14 -8 39 -8 55 -1 25 1 27 8 10 5 -11 8 -36 8 -55z m345 52 c9
-10 14 -27 11 -38 -5 -19 -9 -20 -40 -9 -48 16 -52 24 -24 45 31 24 33 24 53
2z m-5652 -38 c12 -10 19 -31 19 -51 0 -30 -3 -34 -22 -31 -30 4 -37 -35 -12
-63 14 -15 15 -22 6 -31 -9 -9 -19 -8 -43 6 -31 18 -31 18 -56 -8 -24 -26 -35
-31 -45 -21 -8 8 19 102 36 127 9 12 16 36 16 54 0 17 3 34 8 38 11 12 72 -1
93 -20z m5542 -19 l28 -35 -30 0 c-29 0 -41 14 -41 51 0 28 11 24 43 -16z
m-753 -5 c0 -28 -19 -34 -41 -14 -20 18 -20 18 3 30 27 14 38 10 38 -16z
m-115 -10 c17 -19 17 -21 0 -40 -37 -41 -79 -14 -57 36 14 29 33 31 57 4z
m715 -47 c0 -7 -4 -13 -10 -13 -5 0 -10 4 -10 9 0 5 -2 24 -5 42 l-5 34 14
-30 c9 -16 15 -36 16 -42z m-5700 43 c0 -17 -14 -29 -23 -20 -8 8 3 34 14 34
5 0 9 -6 9 -14z m130 -25 c0 -32 -32 -111 -45 -111 -7 0 -25 10 -41 22 -16 12
-31 23 -33 24 -2 2 16 25 39 53 36 42 46 49 61 40 11 -5 19 -18 19 -28z m520
32 c-1 -23 -20 -34 -51 -31 l-34 4 35 16 c40 19 50 21 50 11z m5120 -30 c0 -7
-4 -13 -10 -13 -5 0 -10 12 -10 28 0 21 2 24 10 12 5 -8 10 -21 10 -27z m-611
-13 c-33 -40 -40 -45 -52 -34 -8 8 59 74 74 74 6 0 -5 -18 -22 -40z m-4694
-14 c19 -28 10 -54 -22 -67 -46 -17 -68 -11 -81 23 -6 17 -11 32 -9 32 1 1 16
9 32 18 41 24 62 22 80 -6z m265 -25 c0 -8 -72 -33 -77 -27 -2 2 6 20 18 41
l23 38 18 -23 c10 -12 18 -25 18 -29z m4150 20 c0 -25 35 -55 57 -48 10 3 34
12 55 21 34 15 38 14 59 -3 12 -10 19 -23 15 -29 -10 -17 -46 -15 -46 3 0 17
-7 18 -46 6 -16 -5 -43 -12 -61 -15 -30 -5 -33 -3 -43 32 -13 47 -13 65 0 57
6 -3 10 -14 10 -24z m-4290 -23 c-1 -23 -27 -48 -50 -48 -16 0 -20 4 -16 16 3
9 6 22 6 30 0 9 11 14 30 14 18 0 30 -5 30 -12z m4877 6 c18 -5 22 -11 17 -30
-4 -13 -1 -31 6 -38 23 -28 -33 -93 -70 -81 -19 6 -21 12 -16 44 9 55 26 111
34 111 4 0 17 -3 29 -6z m-657 -44 c0 -28 -2 -30 -40 -30 -48 0 -51 11 -7 39
42 27 47 26 47 -9z m808 -11 c-2 -6 -8 -10 -13 -10 -5 0 -11 4 -13 10 -2 6 4
11 13 11 9 0 15 -5 13 -11z m-5628 -9 c12 -8 11 -10 -7 -10 -13 0 -23 5 -23
10 0 13 11 13 30 0z m816 -22 l27 -33 -46 -13 c-28 -8 -56 -25 -71 -43 -25
-30 -26 -30 -26 -7 0 13 4 38 9 55 6 20 6 35 0 38 -19 13 -7 24 29 28 20 2 40
4 44 5 3 1 19 -13 34 -30z m4414 -11 c0 -18 5 -38 12 -45 9 -9 7 -12 -11 -12
-21 0 -23 3 -17 33 7 40 0 50 -25 34 -10 -6 -22 -8 -26 -4 -10 11 17 27 45 27
18 0 22 -5 22 -33z m-4574 -34 c-4 -27 -8 -58 -9 -70 -1 -13 -6 -23 -10 -23
-12 0 -67 30 -67 36 0 13 32 64 40 64 6 0 10 9 10 20 0 14 7 20 21 20 20 0 21
-3 15 -47z m4280 11 c-27 -23 -30 -24 -39 -9 -11 21 6 35 43 35 l25 -1 -29
-25z m-4516 1 c0 -8 11 -22 25 -31 29 -19 31 -43 10 -84 -25 -48 -69 -65 -78
-30 -7 27 -31 25 -51 -5 -29 -44 -90 -26 -121 36 -9 16 -24 29 -34 29 -25 0
-30 8 -21 38 6 22 12 27 35 25 16 -1 47 3 69 8 35 9 109 23 154 28 6 0 12 -6
12 -14z m120 -5 c0 -11 -3 -20 -8 -20 -4 0 -15 9 -25 20 -16 19 -16 20 8 20
18 0 25 -5 25 -20z m4565 2 c22 -18 45 -64 45 -87 0 -22 -21 -18 -27 5 -3 10
-14 22 -25 26 -27 8 -58 40 -58 59 0 20 40 19 65 -3z m475 4 c0 -15 -18 -31
-26 -23 -7 7 7 37 17 37 5 0 9 -6 9 -14z m-5485 -21 c0 -10 -5 -20 -11 -22
-13 -4 -27 24 -18 38 9 15 29 4 29 -16z m4628 -7 c7 -27 11 -24 -40 -32 -45
-7 -51 0 -33 35 15 28 66 26 73 -3z m97 -20 c0 -24 3 -54 6 -68 10 -38 -16
-10 -33 37 -27 73 -27 73 1 73 24 0 26 -3 26 -42z m-4820 17 c0 -8 -4 -15 -9
-15 -5 0 -14 7 -21 15 -10 13 -9 15 9 15 12 0 21 -6 21 -15z m4990 5 c0 -5 -7
-10 -16 -10 -8 0 -12 5 -9 10 3 6 10 10 16 10 5 0 9 -4 9 -10z m-4030 -105 c0
0 -43 -1 -95 -2 -83 -2 -96 0 -104 16 -14 24 11 47 70 64 l44 13 42 -45 c24
-25 43 -45 43 -46z m4590 36 c0 -5 -11 -16 -24 -24 -22 -15 -24 -15 -29 2 -8
30 11 53 34 41 10 -6 19 -15 19 -19z m-554 -6 c-21 -16 -86 -21 -86 -7 0 17
14 22 59 22 43 -1 45 -2 27 -15z m250 1 c15 -11 16 -17 7 -27 -16 -16 -43 -4
-43 21 0 24 9 25 36 6z m-4528 -35 c3 -16 -1 -22 -10 -19 -7 3 -15 15 -16 27
-3 16 1 22 10 19 7 -3 15 -15 16 -27z m3982 22 c0 -5 -16 -26 -35 -48 l-34
-40 -1 37 c0 25 6 40 18 47 20 12 52 14 52 4z m67 -22 c10 -28 9 -29 -18 -33
-29 -4 -39 5 -19 17 6 3 10 15 10 26 0 28 14 23 27 -10z m-4181 4 c10 -8 14
-15 7 -15 -6 0 -25 -12 -42 -26 -36 -30 -37 -28 -14 21 19 40 22 41 49 20z
m4519 -15 c-16 -32 -54 -47 -79 -33 -14 8 -14 11 -1 30 14 20 34 28 78 32 16
1 16 -1 2 -29z m349 15 c3 -8 1 -15 -4 -15 -6 0 -10 7 -10 15 0 8 2 15 4 15 2
0 6 -7 10 -15z m-5264 -50 l24 -25 -22 -22 c-26 -26 -32 -22 -39 31 -6 47 4
52 37 16z m4990 6 c0 -10 6 -34 14 -52 31 -77 31 -79 -10 -79 -31 0 -35 2 -24
15 17 20 8 50 -15 50 -28 0 -31 39 -6 64 26 26 41 27 41 2z m-4460 -23 c0 -30
-1 -31 -17 -16 -13 14 -14 20 -3 32 18 22 20 20 20 -16z m4230 22 c0 -5 -9
-10 -21 -10 -11 0 -17 5 -14 10 3 6 13 10 21 10 8 0 14 -4 14 -10z m-4043 -45
c-1 -25 -4 -45 -7 -45 -3 0 -18 9 -35 20 -16 11 -42 20 -57 20 -21 0 -28 5
-28 19 0 24 12 29 77 30 l52 1 -2 -45z m4494 -3 c-6 -12 -19 -21 -29 -21 -9 0
-41 -3 -69 -7 -37 -4 -53 -3 -53 5 0 6 11 11 25 11 14 0 44 14 67 30 36 26 44
29 56 16 11 -10 11 -18 3 -34z m-943 11 c2 -9 -8 -13 -33 -13 -33 0 -36 2 -25
15 15 18 51 16 58 -2z m-3808 -30 l32 -36 -43 -21 c-26 -12 -46 -29 -48 -41
-2 -11 -14 -30 -27 -42 -13 -12 -24 -31 -24 -42 0 -11 -11 -28 -25 -37 -21
-14 -31 -15 -51 -5 -26 12 -26 15 9 63 17 22 18 30 7 42 -10 13 -10 24 1 61 7
25 17 45 20 45 4 0 21 -11 37 -25 34 -28 54 -31 72 -10 9 11 7 19 -14 40 -15
15 -24 31 -21 36 12 19 44 8 75 -28z m-252 -3 c-16 -25 -20 -25 -49 0 l-24 19
43 1 c40 0 41 -1 30 -20z m4302 15 c0 -12 -42 -45 -50 -40 -17 10 -11 25 13
35 26 10 37 12 37 5z m90 -22 c0 -10 -10 -62 -22 -115 -20 -92 -23 -97 -44
-92 -32 8 -39 -14 -15 -47 l22 -30 -22 -65 c-12 -35 -23 -63 -25 -61 -12 11
-23 112 -14 121 15 15 12 44 -4 53 -8 4 -17 20 -21 35 -6 25 -3 29 39 50 51
24 59 47 24 71 l-23 15 44 41 c49 45 61 50 61 24z m130 -34 c17 -40 0 -79 -34
-79 -41 0 -41 -20 -2 -56 33 -30 37 -39 34 -77 -3 -40 -5 -42 -45 -52 -54 -13
-59 -19 -39 -49 21 -33 20 -48 -4 -74 -24 -25 -47 -27 -74 -7 -18 14 -18 15 2
67 12 29 24 70 28 91 7 41 18 47 34 17 13 -24 36 -26 44 -4 10 25 -23 84 -46
84 -14 0 -18 5 -14 16 3 9 11 47 18 85 10 64 12 68 28 54 19 -17 30 -11 30 18
0 27 23 7 40 -34z m60 47 c0 -11 -19 -15 -25 -6 -3 5 1 10 9 10 9 0 16 -2 16
-4z m-606 -21 c3 -9 19 -15 41 -15 45 0 46 -21 3 -41 -21 -9 -34 -22 -36 -36
-3 -18 -10 -23 -32 -23 -42 0 -49 39 -13 81 8 9 13 20 12 25 -5 27 15 34 25 9z
m704 -10 c7 -14 12 -34 12 -43 0 -25 20 -42 47 -42 21 0 21 -1 8 -32 -9 -24
-22 -35 -44 -39 -40 -8 -54 7 -34 37 22 34 10 55 -29 52 -43 -4 -48 21 -12 61
33 38 38 38 52 6z m-4773 -9 c54 -23 43 -36 -30 -36 -36 0 -65 3 -65 6 0 3 5
14 10 25 13 23 38 24 85 5z m488 -43 c2 -13 -1 -23 -7 -23 -20 1 -58 40 -53
54 9 22 54 -3 60 -31z m131 -3 c-3 -14 -7 -30 -9 -37 -5 -14 -84 -57 -92 -50
-2 3 3 19 11 36 9 16 16 41 16 53 0 21 5 24 40 23 36 0 39 -2 34 -25z m275
-114 c-18 -64 -91 -89 -97 -33 -2 15 -8 27 -13 27 -5 0 -9 8 -9 17 0 13 6 11
29 -11 18 -17 31 -24 35 -17 12 18 -5 82 -25 94 -13 8 -15 15 -8 28 8 16 14
12 53 -29 39 -41 43 -49 35 -76z m3326 104 c17 -19 17 -21 2 -38 -18 -20 -85
-44 -99 -36 -17 11 -7 33 30 63 44 36 44 36 67 11z m-4125 -16 c0 -15 -22 -44
-34 -44 -7 0 -25 -9 -39 -20 -15 -12 -40 -20 -64 -20 -33 0 -42 4 -52 27 -10
21 -9 28 1 34 7 5 18 7 23 5 6 -2 42 3 80 9 88 16 85 16 85 9z m324 -15 c35
-27 36 -53 1 -37 -19 8 -28 8 -40 -2 -13 -11 -18 -10 -30 6 -38 51 14 76 69
33z m3486 11 c0 -5 -5 -10 -11 -10 -5 0 -7 5 -4 10 3 6 8 10 11 10 2 0 4 -4 4
-10z m70 -42 c23 -27 34 -33 69 -33 40 0 41 -1 41 -32 0 -32 -2 -33 -39 -33
-40 0 -51 11 -51 51 0 19 -8 23 -47 19 -24 -2 -26 2 -17 38 8 29 12 28 44 -10z
m689 -9 c-7 -14 -14 -18 -21 -11 -13 13 -2 32 18 32 12 0 13 -4 3 -21z m-4021
-48 c6 -16 8 -31 6 -34 -9 -9 -84 18 -84 30 0 13 32 31 57 32 6 1 16 -12 21
-28z m3151 -27 c-27 -119 -21 -109 -65 -107 -21 1 -52 8 -67 16 -26 14 -27 16
-11 31 9 9 42 35 74 56 33 22 62 45 65 51 14 21 15 1 4 -47z m-3483 35 c3 -6
17 -9 31 -6 15 3 27 -1 30 -9 6 -17 30 -18 36 -1 8 18 26 -11 20 -32 -3 -14
-16 -17 -60 -16 -48 0 -57 4 -69 25 -7 14 -13 31 -14 38 0 15 16 16 26 1z
m4609 -2 c10 -8 15 -19 11 -25 -9 -15 -56 6 -56 25 0 17 21 17 45 0z m-729
-52 l-1 -54 -47 -20 -48 -20 0 23 c0 12 11 33 25 46 14 13 25 31 25 40 0 9 10
22 23 28 12 6 22 11 23 11 0 1 0 -24 0 -54z m-4116 25 c0 -13 -7 -20 -20 -20
-19 0 -27 20 -13 33 13 14 33 6 33 -13z m3783 -44 c-5 -53 -2 -69 13 -93 12
-17 18 -41 16 -60 -3 -30 -6 -33 -38 -33 -31 0 -34 3 -34 29 0 17 6 31 16 35
13 5 14 9 4 21 -9 11 -10 34 -5 82 7 72 11 83 25 83 5 0 7 -28 3 -64z m437 40
c0 -32 -18 -43 -38 -23 -13 13 -13 19 -2 31 19 24 40 19 40 -8z m-3298 -31 c4
-5 2 -15 -5 -21 -16 -15 -129 -56 -135 -49 -3 3 16 24 41 47 26 23 47 48 47
56 0 12 5 11 23 -4 12 -10 25 -23 29 -29z m3848 4 c0 -6 -7 -8 -16 -5 -9 3
-18 6 -20 6 -2 0 -4 7 -4 15 0 13 4 14 20 5 11 -6 20 -16 20 -21z m-4336 5
c12 -32 5 -82 -15 -108 -23 -29 -77 -48 -96 -33 -20 15 -16 47 6 47 21 0 64
50 76 88 7 26 20 29 29 6z m3447 -11 c7 -16 15 -31 16 -34 3 -5 -40 -29 -51
-29 -6 0 -26 61 -26 76 0 26 46 16 61 -13z m804 -13 c17 -18 17 -20 1 -26 -20
-8 -52 19 -42 35 10 16 21 14 41 -9z m-4596 -37 c8 -28 7 -39 -2 -45 -23 -15
-27 -8 -27 43 0 57 14 58 29 2z m113 13 c22 -27 32 -33 55 -28 l28 5 -24 -27
c-33 -35 -53 -33 -90 9 -30 35 -38 55 -24 68 13 14 29 6 55 -27z m360 0 c11
-17 -1 -26 -38 -26 -36 0 -41 9 -24 41 9 16 14 17 33 8 12 -7 25 -17 29 -23z
m118 20 c0 -3 -4 -8 -10 -11 -5 -3 -10 -1 -10 4 0 6 5 11 10 11 6 0 10 -2 10
-4z m50 -56 c0 -23 -6 -33 -22 -39 -19 -7 -24 -5 -26 12 -3 13 5 28 18 39 29
24 30 23 30 -12z m3839 -9 c-15 -5 -22 6 -14 19 6 9 10 9 16 -1 5 -8 4 -15 -2
-18z m-599 4 c0 -8 -6 -15 -14 -15 -17 0 -28 14 -19 24 12 12 33 6 33 -9z
m221 -30 c-4 -26 -12 -41 -24 -43 -24 -5 -22 24 6 58 12 15 23 27 23 26 1 0
-1 -19 -5 -41z m-3256 -25 c-3 -6 -12 -10 -20 -10 -7 0 -27 -12 -44 -26 -22
-18 -31 -21 -31 -11 0 7 -9 22 -20 32 -26 23 -16 34 48 56 47 16 47 16 60 -8
7 -13 10 -28 7 -33z m85 34 c0 -8 -7 -14 -15 -14 -8 0 -15 9 -15 20 0 13 5 18
15 14 8 -4 15 -12 15 -20z m2494 -15 c3 -17 6 -48 6 -68 l0 -37 -47 -2 c-35
-2 -53 -8 -66 -24 -15 -18 -20 -20 -28 -7 -5 7 -7 20 -4 27 3 8 5 18 5 23 0 5
7 9 15 9 8 0 15 -4 15 -10 0 -14 26 -12 39 3 6 8 12 33 13 58 2 24 7 47 13 51
20 15 33 7 39 -23z m590 -26 c-10 -26 -19 -50 -20 -51 -1 -2 -16 -1 -33 3 -24
5 -31 12 -31 31 0 18 11 29 48 48 26 13 49 23 51 21 2 -2 -5 -25 -15 -52z
m156 43 c0 -3 -4 -8 -10 -11 -5 -3 -10 -1 -10 4 0 6 5 11 10 11 6 0 10 -2 10
-4z m-3700 -44 l0 -26 -21 21 c-23 22 -18 46 6 36 8 -3 15 -17 15 -31z m3088
18 l42 0 0 -42 c-1 -34 -8 -51 -34 -81 -30 -33 -36 -36 -60 -27 -14 5 -26 11
-26 14 0 2 23 21 50 41 28 20 50 41 50 46 0 15 -39 10 -66 -8 -22 -14 -27 -14
-35 -2 -5 8 -9 27 -9 43 0 25 3 28 23 22 12 -3 41 -6 65 -6z m-2994 -25 c-25
-38 -44 -31 -28 9 3 9 15 16 25 16 18 0 19 -1 3 -25z m-494 6 c0 -5 -9 -7 -20
-4 -11 3 -20 7 -20 9 0 2 9 4 20 4 11 0 20 -4 20 -9z m3779 -5 c14 -16 -1 -31
-40 -41 -34 -9 -46 10 -23 36 20 22 47 25 63 5z m608 8 c-3 -3 -12 -4 -19 -1
-8 3 -5 6 6 6 11 1 17 -2 13 -5z m-4039 -41 c24 -23 30 -33 17 -28 -11 4 -42
12 -69 18 l-48 10 23 18 c32 25 35 24 77 -18z m592 7 c29 -24 32 -29 15 -29
-31 -1 -106 24 -106 35 0 7 23 18 51 23 3 1 21 -12 40 -29z m-825 10 c3 -5 -1
-10 -10 -10 -9 0 -13 5 -10 10 3 6 8 10 10 10 2 0 7 -4 10 -10z m3068 -32 c-8
-42 -7 -42 -34 -27 l-23 12 28 23 c35 31 37 30 29 -8z m-2575 2 c19 -16 23
-28 21 -68 -4 -80 15 -91 67 -41 39 38 74 34 74 -10 0 -32 -16 -51 -45 -51
-11 0 -30 -7 -41 -15 -29 -19 -165 -47 -217 -43 l-42 3 3 45 c1 25 7 61 12 81
9 32 13 35 38 31 26 -3 30 0 36 29 12 61 49 77 94 39z m3457 10 c-3 -5 -11
-10 -16 -10 -6 0 -7 5 -4 10 3 6 11 10 16 10 6 0 7 -4 4 -10z m-4028 -21 l28
-10 -28 -17 c-15 -9 -30 -27 -33 -39 -8 -30 -21 -21 -26 19 -3 18 -9 42 -13
52 -7 17 -5 18 18 12 14 -3 39 -11 54 -17z m173 -5 c0 -19 -39 -53 -62 -54
-47 -1 -48 13 -1 46 47 33 63 35 63 8z m3973 6 c-5 -19 -33 -49 -33 -36 0 7
31 56 35 56 2 0 1 -9 -2 -20z m-3403 -5 c0 -8 -6 -15 -14 -15 -20 0 -29 17
-14 23 22 9 28 7 28 -8z m3248 8 c-34 -71 -40 -74 -66 -35 -13 20 -12 22 20
31 43 12 50 13 46 4z m-198 -23 c0 -6 -7 -13 -15 -16 -23 -9 -18 -30 11 -48
18 -13 24 -24 22 -44 -3 -26 -6 -27 -58 -28 -30 0 -75 -8 -99 -17 -55 -22 -61
-21 -61 3 0 13 13 26 39 39 32 17 44 18 74 9 19 -6 42 -8 51 -5 25 10 19 43
-11 67 -27 21 -27 22 -9 36 23 16 56 19 56 4z m500 -4 c0 -9 -7 -12 -21 -9
-16 4 -17 8 -7 14 19 13 28 11 28 -5z m-3446 -5 c6 -9 -55 -53 -62 -46 -3 2
-2 16 2 30 5 18 13 25 31 25 13 0 26 -4 29 -9z m2202 -42 c-1 -44 -4 -53 -24
-60 -19 -7 -25 -4 -39 26 -9 19 -15 36 -12 38 5 4 73 47 75 47 1 0 1 -23 0
-51z m-2738 24 c-10 -2 -26 -2 -35 0 -10 3 -2 5 17 5 19 0 27 -2 18 -5z m3332
-6 c0 -21 -37 -37 -70 -31 -28 6 -38 22 -23 37 12 13 93 8 93 -6z m250 -11
c23 -26 22 -56 -3 -56 -11 0 -37 51 -37 73 0 14 17 6 40 -17z m333 13 c-6 -6
-23 -12 -39 -14 -15 -1 -30 -8 -32 -15 -7 -20 -41 -50 -57 -50 -26 0 -16 16
27 45 52 35 127 60 101 34z m-4023 -19 c0 -5 -5 -10 -11 -10 -5 0 -7 5 -4 10
3 6 8 10 11 10 2 0 4 -4 4 -10z m3070 -4 c0 -7 7 -19 16 -27 14 -11 12 -15
-18 -30 -50 -27 -61 -25 -53 14 9 43 55 79 55 43z m-3211 -38 c19 -34 20 -40
6 -35 -9 4 -25 7 -35 7 -21 0 -31 30 -18 54 13 24 21 20 47 -26z m971 17 c23
-24 23 -25 5 -45 -19 -21 -55 -27 -55 -10 0 5 -14 25 -31 45 l-31 35 44 0 c34
0 50 -6 68 -25z m2090 -26 c0 -20 -5 -29 -16 -29 -11 0 -14 5 -10 16 3 9 6 25
6 35 0 11 5 17 10 14 6 -3 10 -19 10 -36z m-2217 -8 c15 -22 27 -46 27 -54 0
-19 -42 -35 -48 -19 -2 6 -14 27 -28 47 -27 41 -29 51 -11 58 24 10 32 6 60
-32z m3088 -8 c10 -3 19 -14 19 -24 0 -22 -41 -45 -64 -36 -13 5 -12 12 2 56
12 35 18 44 20 30 2 -12 12 -24 23 -26z m-3687 31 c11 -4 16 -19 16 -45 0 -44
0 -45 -41 -23 -37 19 -59 12 -59 -17 0 -29 -20 -20 -48 22 l-23 34 33 8 c18 5
44 12 58 17 33 10 45 11 64 4z m3114 -25 c18 -6 29 -15 26 -20 -7 -13 -41 -11
-63 3 -16 9 -23 6 -48 -21 -21 -24 -35 -32 -53 -29 -23 3 -22 5 16 25 22 12
46 29 53 37 16 19 27 20 69 5z m-2607 -41 c14 -25 8 -31 -25 -22 -27 6 -30 12
-20 38 7 18 31 10 45 -16z m2259 -48 c0 -30 -35 -69 -49 -54 -19 19 -16 73 4
88 25 18 45 4 45 -34z m86 13 c-11 -11 -17 4 -9 23 7 18 8 18 11 1 2 -10 1
-21 -2 -24z m352 -9 c-4 -23 -26 -30 -34 -10 -8 20 15 51 29 37 5 -5 7 -17 5
-27z m-3370 14 c14 -14 16 -28 2 -28 -5 0 -14 9 -20 20 -12 22 -1 27 18 8z
m1002 -10 c0 -19 -2 -20 -10 -8 -13 19 -13 30 0 30 6 0 10 -10 10 -22z m-71
-25 c6 -21 11 -41 11 -45 0 -14 -29 -8 -75 14 -44 21 -55 43 -22 43 9 0 22 6
29 13 24 24 47 14 57 -25z m1775 12 c3 -13 16 -30 29 -36 28 -15 37 -28 37
-57 0 -38 -29 -72 -61 -72 -38 0 -44 18 -24 76 14 42 14 49 1 62 -12 13 -18
13 -31 2 -23 -19 -29 -5 -10 24 22 33 51 34 59 1z m596 -48 c18 -12 19 -20 13
-67 -5 -29 -14 -55 -21 -58 -9 -3 -10 2 -3 21 18 48 -20 127 -61 127 -27 0
-22 17 10 34 26 14 27 13 35 -14 4 -16 16 -35 27 -43z m428 47 c-11 -24 -54
-54 -78 -54 -14 0 -2 62 14 72 6 4 26 8 43 8 31 0 32 -1 21 -26z m-140 -11 c4
-28 -33 -65 -60 -61 -12 2 -26 11 -32 21 -9 15 -6 23 18 43 34 30 70 28 74 -3z
m-1006 -18 c-3 -16 2 -33 14 -46 12 -14 19 -38 21 -73 2 -48 -1 -54 -32 -79
l-33 -26 4 37 c2 20 6 76 10 125 3 48 9 87 14 87 4 0 5 -11 2 -25z m-2422 -6
c0 -5 -4 -9 -10 -9 -5 0 -10 7 -10 16 0 8 5 12 10 9 6 -3 10 -10 10 -16z m526
8 c1 -1 0 -14 -3 -29 -5 -24 -7 -26 -32 -17 -30 12 -61 38 -61 52 0 8 87 3 96
-6z m-143 -28 c25 -44 22 -83 -8 -103 -30 -20 -55 -21 -55 -3 0 19 -33 47 -45
39 -6 -4 -16 -19 -22 -34 -7 -16 -17 -28 -22 -28 -37 0 -91 41 -124 93 -10 15
-25 27 -35 27 -14 0 -14 2 -3 9 8 5 44 10 80 10 36 0 89 5 116 10 88 15 98 14
118 -20z m534 14 c2 -6 -5 -17 -16 -23 -19 -10 -21 -8 -21 15 0 19 5 26 17 23
9 -2 18 -8 20 -15z m2023 8 c0 -8 -26 -63 -38 -81 -5 -6 -42 39 -42 50 0 5 7
16 16 24 17 17 64 22 64 7z m342 -37 c3 -46 -5 -67 -16 -38 -9 24 -7 84 3 84
5 0 11 -21 13 -46z m338 21 c0 -8 -7 -15 -15 -15 -16 0 -20 12 -8 23 11 12 23
8 23 -8z m-2956 -15 c6 -6 -1 -13 -16 -19 -15 -5 -29 -15 -33 -20 -11 -19 -21
-12 -39 25 l-17 36 48 -7 c26 -3 52 -11 57 -15z m2361 0 c3 -5 14 -10 25 -10
18 0 30 -18 30 -46 0 -8 -10 -14 -23 -14 -27 0 -59 -30 -49 -46 4 -6 25 -17
47 -26 30 -12 43 -24 51 -49 6 -19 9 -39 7 -46 -7 -17 -45 -16 -69 2 -10 8
-29 15 -41 15 -19 0 -23 -6 -23 -28 0 -16 9 -37 20 -47 26 -24 25 -37 -4 -64
-19 -18 -32 -22 -58 -18 -30 5 -36 2 -63 -35 -16 -23 -41 -48 -55 -56 -20 -11
-19 -9 6 14 18 16 41 46 53 67 19 34 64 212 78 307 6 36 37 90 53 90 5 0 12
-4 15 -10z m-729 -44 c-9 -50 2 -86 32 -97 22 -8 24 -14 18 -47 -3 -20 -6 -52
-6 -69 0 -30 -3 -33 -31 -33 l-31 0 7 49 c6 48 6 48 -24 54 l-30 6 19 43 c11
24 20 59 20 79 0 36 6 49 23 49 5 0 6 -15 3 -34z m504 10 c0 -18 -8 -27 -32
-37 -18 -7 -36 -14 -40 -17 -5 -2 -8 5 -8 16 0 12 14 29 33 41 41 27 47 26 47
-3z m433 -22 c5 -26 2 -33 -13 -37 -23 -6 -27 21 -9 55 13 24 14 22 22 -18z
m-2181 -25 c40 -42 48 -58 48 -88 0 -23 -5 -38 -12 -39 -7 -1 -27 -4 -45 -8
-29 -6 -33 -3 -39 21 -4 16 -2 36 5 46 23 38 14 52 -28 46 -41 -5 -61 6 -61
33 0 25 21 40 54 40 23 0 41 -12 78 -51z m2388 35 c0 -7 -66 -34 -85 -34 -31
0 -14 16 28 27 57 14 57 14 57 7z m-2934 -18 c22 -17 11 -35 -13 -20 -19 12
-29 34 -16 34 5 0 18 -6 29 -14z m270 -1 c11 -29 -2 -33 -31 -9 l-30 24 28 0
c15 0 30 -7 33 -15z m2740 -1 c-3 -9 -6 -18 -6 -20 0 -3 -4 -3 -10 1 -11 7 -2
35 12 35 6 0 7 -7 4 -16z m-2807 -50 c35 -29 39 -42 14 -51 -10 -3 -29 -14
-43 -24 -15 -10 -49 -19 -80 -20 -45 -3 -54 0 -61 16 -24 63 7 87 51 40 37
-39 64 -30 68 23 2 23 7 42 12 42 5 0 22 -12 39 -26z m1498 -19 c-8 -26 -16
-35 -33 -35 -12 0 -31 -3 -41 -6 -10 -4 2 12 27 34 25 23 48 41 52 42 3 0 1
-16 -5 -35z m675 30 c3 -3 2 -23 -2 -43 -5 -20 -13 -68 -20 -106 -13 -78 -30
-118 -67 -152 -44 -40 -49 -26 -8 16 39 40 40 41 24 69 -16 27 -15 28 18 65
53 57 27 84 -48 50 -47 -21 -55 -15 -43 28 7 25 20 39 54 56 42 21 81 28 92
17z m-2877 -43 c-6 -16 -7 -16 -17 2 -8 14 -7 21 3 27 17 10 24 -4 14 -29z
m440 -26 c-38 -9 -65 -3 -65 14 0 5 6 10 13 10 8 0 22 9 32 20 18 20 18 20 37
-7 l18 -28 -35 -9z m473 31 c23 -22 30 -57 10 -57 -21 0 -58 43 -58 67 0 26 9
24 48 -10z m2515 19 c7 -17 -19 -29 -44 -21 -26 9 -24 23 4 28 12 2 25 5 28 6
4 0 9 -5 12 -13z m-3313 -26 c-5 -10 -10 -37 -10 -59 0 -23 -4 -41 -10 -41 -5
0 -10 9 -10 21 0 11 -9 28 -20 37 -21 19 -14 36 25 58 26 15 38 8 25 -16z
m2518 -2 c3 -22 -1 -26 -35 -31 -21 -4 -55 -18 -75 -32 l-37 -25 13 32 c9 21
25 36 45 43 17 5 38 18 48 28 22 22 37 17 41 -15z m681 -5 c13 -47 -10 -68
-49 -43 -12 7 -12 12 -2 22 6 6 12 22 12 35 0 37 28 27 39 -14z m-3039 -10 c0
-16 -49 -77 -71 -88 -41 -22 -49 -19 -49 21 0 58 11 69 69 69 28 0 51 -1 51
-2z m2938 -14 c-10 -5 -18 -17 -18 -24 0 -25 -27 -16 -32 10 -5 23 -2 25 31
25 29 -1 33 -3 19 -11z m-777 -64 c-12 -26 -21 -61 -21 -77 0 -37 -24 -33 -28
5 -3 26 18 78 46 110 24 27 25 13 3 -38z m-2086 34 c9 -13 6 -16 -29 -25 -26
-6 -27 -5 -17 15 12 22 36 28 46 10z m1560 1 c-3 -5 -16 -10 -28 -10 -18 0
-19 2 -7 10 20 13 43 13 35 0z m65 -39 c-6 -12 -17 -21 -25 -21 -20 0 -19 5 8
41 16 22 23 27 25 15 2 -8 -2 -24 -8 -35z m-725 20 c0 -23 -22 -24 -28 -1 -4
16 -1 20 11 18 9 -2 17 -10 17 -17z m-763 -6 c31 -6 33 -9 34 -50 1 -24 11
-64 24 -90 12 -25 21 -47 19 -49 -12 -11 -50 -26 -63 -26 -9 0 -25 18 -35 39
l-20 39 25 6 c33 9 30 49 -4 54 -12 2 -29 13 -37 25 -17 26 -9 71 11 63 7 -3
28 -8 46 -11z m269 5 c21 -12 24 -35 9 -75 l-10 -26 -25 29 c-45 53 -28 100
26 72z m1474 0 c3 -5 3 -25 0 -44 l-7 -33 -40 12 c-23 6 -46 19 -53 28 -15 22
-24 21 -42 0 -13 -17 -14 -17 -11 1 5 33 136 64 153 36z m-1253 -52 c-8 -8
-20 -9 -39 -2 -35 12 -39 28 -11 41 19 9 27 7 43 -8 15 -15 17 -21 7 -31z
m1634 37 c6 -14 -4 -33 -39 -78 -13 -15 -19 -16 -41 -6 -36 17 -33 29 8 29 42
0 71 28 38 37 -36 9 -25 25 21 32 4 0 10 -6 13 -14z m-805 -21 c9 -11 26 -15
56 -12 48 4 47 4 33 -23 -14 -25 -54 -24 -72 2 -12 19 -17 20 -37 10 -27 -15
-32 -12 -24 17 6 26 25 28 44 6z m-1162 -9 c2 -3 -5 -14 -17 -25 -12 -12 -22
-31 -22 -43 -1 -21 -1 -22 -15 -3 -8 11 -15 35 -15 54 0 33 1 34 32 28 17 -3
34 -8 37 -11z m711 -20 c12 -22 10 -28 -14 -60 -29 -37 -51 -47 -42 -17 3 9
10 36 16 60 12 48 21 52 40 17z m-976 -10 c28 -42 24 -46 -56 -59 -37 -7 -37
-6 -35 26 3 45 13 58 46 58 19 0 34 -8 45 -25z m667 11 c-6 -7 -9 -21 -5 -30
7 -18 -3 -21 -26 -6 -12 7 -12 12 4 29 21 23 45 29 27 7z m2149 8 c0 -3 -5
-14 -11 -25 -8 -16 -13 -18 -25 -8 -22 18 -17 39 11 39 14 0 25 -3 25 -6z
m-1972 -121 l-34 -34 -1 36 c-1 26 7 44 30 71 l32 36 3 -38 c3 -31 -2 -43 -30
-71z m503 52 c10 -4 19 -10 19 -14 0 -10 -39 -45 -44 -40 -3 2 -7 29 -10 59
-5 46 -4 50 5 28 6 -15 19 -30 30 -33z m445 5 c36 -12 47 -43 18 -54 -29 -11
-64 -7 -64 9 0 8 -9 15 -20 15 -17 0 -20 7 -20 41 l0 40 26 -20 c14 -11 41
-25 60 -31z m484 35 c0 -8 -2 -15 -4 -15 -2 0 -12 -3 -21 -7 -15 -5 -16 -3 -6
15 13 25 31 29 31 7z m424 -36 c-24 -27 -30 -15 -9 18 12 17 20 23 23 15 2 -7
-4 -22 -14 -33z m-2153 21 c28 -16 23 -30 -10 -30 -31 0 -47 13 -36 30 8 13
21 13 46 0z m721 -65 c13 -62 13 -75 2 -75 -8 0 -14 7 -14 16 0 9 -8 28 -19
42 -30 43 -34 69 -14 81 10 6 21 11 24 11 3 0 13 -34 21 -75z m-531 55 c22
-12 26 -50 4 -50 -14 0 -35 29 -35 49 0 14 6 14 31 1z m849 -5 c0 -8 -7 -15
-15 -15 -16 0 -20 12 -8 23 11 12 23 8 23 -8z m-1288 -35 c3 -36 1 -40 -20
-40 -19 0 -22 4 -17 23 4 12 9 30 11 40 9 30 22 18 26 -23z m768 23 c0 -32
-15 -45 -43 -38 -25 7 -26 8 -10 31 18 28 53 32 53 7z m876 -1 c11 -7 34 -45
34 -56 0 -10 -27 -7 -55 6 -30 13 -36 58 -7 58 9 0 22 -4 28 -8z m-767 -41
c11 -21 19 -53 18 -70 -2 -28 -5 -31 -34 -31 -30 0 -31 1 -28 43 2 23 4 54 4
70 1 38 17 34 40 -12z m-776 -31 c-5 -42 -3 -50 11 -50 25 0 19 -19 -10 -26
-14 -4 -36 -1 -49 6 -20 11 -27 9 -54 -11 -30 -22 -34 -22 -59 -8 -29 16 -40
45 -23 62 8 8 14 8 23 -1 19 -19 97 -15 106 6 15 36 46 81 53 76 5 -2 5 -27 2
-54z m1744 48 c6 -7 13 -25 17 -40 7 -29 3 -31 -64 -42 -47 -8 -75 11 -67 46
10 40 91 65 114 36z m-633 -4 c21 -8 20 -20 -6 -56 l-21 -30 -13 23 c-20 36
-18 69 5 69 11 0 26 -3 35 -6z m777 -35 c4 -29 1 -39 -13 -48 -10 -6 -18 -18
-18 -26 0 -8 -4 -15 -8 -15 -16 0 -32 25 -32 49 0 19 3 22 12 13 15 -15 38 3
38 30 0 16 -5 19 -25 14 -14 -4 -25 -2 -25 3 0 11 27 20 50 17 9 -1 17 -16 21
-37z m-1653 14 c46 -8 39 -36 -11 -44 -31 -5 -39 -2 -52 18 -18 27 -11 47 14
38 9 -4 31 -9 49 -12z m-604 -10 c5 -11 1 -22 -10 -30 -22 -16 -34 -16 -74 1
l-32 13 23 17 c31 22 85 21 93 -1z m2613 -37 c-11 -27 -27 -17 -27 16 0 30 1
31 16 16 9 -9 14 -24 11 -32z m-2200 -3 c-3 -10 -5 -4 -5 12 0 17 2 24 5 18 2
-7 2 -21 0 -30z m88 -3 c18 -20 11 -25 -19 -14 -17 6 -23 34 -8 34 5 0 17 -9
27 -20z m419 0 c17 -17 -12 -61 -54 -78 -25 -11 -40 -24 -40 -34 0 -20 -15
-24 -25 -8 -8 12 -25 13 -45 0 -12 -7 -12 -12 -2 -22 17 -17 15 -25 -8 -31
-14 -4 -25 4 -41 29 -28 45 -56 61 -76 41 -13 -13 -12 -19 6 -54 11 -23 17
-43 14 -47 -10 -10 -115 -7 -158 5 -37 10 -38 12 -20 25 10 8 26 14 36 14 29
0 66 38 73 76 7 35 8 36 49 32 40 -3 43 -1 52 30 5 17 14 32 21 32 21 0 36
-29 32 -60 -5 -32 13 -56 34 -47 7 3 22 22 33 43 32 64 46 76 79 70 17 -4 35
-11 40 -16z m96 16 c0 -2 -9 -6 -20 -9 -11 -3 -20 -1 -20 4 0 5 9 9 20 9 11 0
20 -2 20 -4z m1506 -24 c-22 -5 -30 3 -21 18 5 8 11 7 22 -2 15 -12 14 -13 -1
-16z m-796 9 c0 -5 -11 -16 -25 -25 -24 -16 -25 -15 -25 2 0 10 3 22 7 25 9
10 43 8 43 -2z m-140 -31 c0 -16 -7 -20 -35 -20 -51 0 -45 -26 10 -50 25 -11
45 -24 45 -31 0 -7 -7 -8 -17 -4 -10 4 -39 12 -65 18 -41 10 -47 15 -42 32 13
44 32 63 58 58 16 -3 26 -1 26 6 0 6 5 11 10 11 6 0 10 -9 10 -20z m-1550 -61
c-14 -32 -20 -35 -38 -17 -21 21 -14 56 16 72 25 13 27 13 30 -6 2 -11 -2 -33
-8 -49z m1830 61 c0 -13 -77 -49 -102 -50 -29 0 -20 25 15 43 37 18 87 22 87
7z m-456 -22 c12 -19 13 -32 4 -73 -7 -27 -13 -52 -15 -54 -2 -3 -17 8 -33 24
-22 22 -30 38 -30 65 0 59 45 82 74 38z m-1272 -81 c-4 -52 -6 -56 -22 -47
-28 15 -33 46 -19 96 13 43 15 44 29 27 11 -13 14 -36 12 -76z m898 84 c0 -12
-29 -35 -36 -28 -11 10 5 37 21 37 8 0 15 -4 15 -9z m-524 -23 c3 -5 0 -15 -6
-24 -11 -12 -15 -11 -26 12 -8 14 -14 28 -14 29 0 7 41 -8 46 -17z m1473 13
c8 -5 11 -16 7 -29 -9 -29 -71 -41 -93 -19 -14 14 -13 18 18 36 38 23 47 25
68 12z m-711 -52 l3 -44 -16 29 c-18 34 -20 69 -2 64 6 -3 13 -24 15 -49z
m897 16 c0 -29 -47 -49 -92 -38 l-35 8 22 28 c19 24 28 28 64 25 33 -2 41 -7
41 -23z m-1734 -28 c-13 -13 -31 0 -24 19 4 11 8 12 20 3 9 -8 10 -16 4 -22z
m749 28 c0 -3 -6 -15 -12 -28 -7 -12 -14 -24 -15 -26 -1 -2 -16 7 -33 19 -16
12 -28 26 -25 31 6 9 85 13 85 4z m1050 -36 c-7 -11 -14 -19 -16 -16 -7 7 7
37 17 37 6 0 5 -9 -1 -21z m-2022 -9 c-7 -11 -16 -20 -20 -20 -5 0 -8 9 -8 20
0 13 7 20 20 20 18 0 19 -2 8 -20z m95 6 c16 -13 15 -14 -10 -19 -28 -5 -69
14 -56 26 11 11 47 7 66 -7z m719 -25 c-3 -44 -6 -47 -30 -24 -10 10 -27 23
-37 29 -29 16 -9 36 33 32 35 -3 37 -4 34 -37z m816 13 c19 -34 -87 -109 -115
-82 -17 17 5 51 51 79 38 23 52 24 64 3z m-947 -35 c-2 -8 -3 -23 -2 -34 8
-78 5 -98 -23 -121 -31 -27 -68 -31 -86 -9 -17 20 -30 19 -57 -7 -28 -26 -56
-16 -61 21 -5 30 -27 37 -56 17 -24 -15 -26 -14 -55 10 -17 14 -29 30 -25 35
3 5 38 9 77 9 40 0 90 5 112 11 21 6 41 7 42 3 2 -5 7 -15 12 -23 15 -24 44 6
38 39 -5 21 0 29 31 47 40 23 59 23 53 2z m248 -19 c7 0 9 -4 6 -10 -8 -13
-52 -13 -60 0 -4 6 -4 18 -1 27 6 14 8 14 24 -1 10 -9 24 -16 31 -16z m471 -4
c0 -24 -21 -35 -48 -25 -14 5 -32 9 -41 7 -24 -3 -61 12 -61 25 0 9 22 11 75
9 51 -3 75 -8 75 -16z m550 2 c0 -13 -4 -29 -9 -37 -13 -20 -24 4 -17 35 8 30
26 32 26 2z m-1799 -4 c11 -14 9 -19 -11 -34 -25 -19 -25 -19 -28 1 -7 44 14
62 39 33z m1524 -36 c-11 -95 -12 -96 -47 -95 -49 3 -50 41 -3 87 19 18 35 40
35 47 0 7 5 13 10 13 7 0 9 -19 5 -52z m-913 -2 c-3 -5 -11 -1 -19 9 -20 28
-16 41 6 19 10 -10 16 -23 13 -28z m376 27 c27 -6 36 -19 28 -40 -5 -12 -9
-13 -21 -3 -9 8 -28 10 -48 6 -36 -7 -115 18 -87 27 8 3 29 10 45 15 17 6 37
8 45 5 8 -3 25 -8 38 -10z m681 6 c66 -14 70 -31 14 -62 l-46 -25 -24 35 c-23
34 -25 63 -4 63 6 0 32 -5 60 -11z m-339 -89 c0 -7 -45 -30 -59 -30 -5 0 -6
12 -4 28 9 54 12 57 38 32 14 -13 25 -26 25 -30z m-500 -17 c0 -9 -16 -13 -55
-13 -52 0 -55 1 -55 25 0 38 28 47 72 22 21 -11 38 -27 38 -34z m-766 24 c8
-12 7 -20 -2 -29 -9 -9 -15 -10 -20 -2 -4 7 -16 13 -26 15 -19 4 -19 5 -2 22
21 20 35 19 50 -6z m1090 6 c69 -13 86 -64 37 -114 -28 -28 -71 -40 -71 -19 0
6 -11 10 -25 10 -26 0 -38 -17 -49 -72 -3 -15 -13 -34 -22 -42 -17 -18 -69
-21 -79 -6 -10 15 43 64 68 65 26 0 30 23 9 48 -16 19 -14 20 38 21 28 1 36 5
38 23 2 12 -6 31 -18 43 -29 29 -18 64 17 55 14 -3 39 -9 57 -12z m-494 -8 c0
-9 -6 -12 -15 -9 -8 4 -12 10 -9 15 8 14 24 10 24 -6z m314 -11 c27 -10 18
-43 -28 -113 -50 -74 -82 -111 -97 -111 -15 0 5 31 40 63 37 32 42 76 11 84
-30 8 -24 27 18 56 44 31 37 28 56 21z m-829 -46 c-4 -13 -10 -42 -12 -65 -4
-38 -7 -42 -24 -33 -36 20 -41 45 -16 84 26 41 64 51 52 14z m505 -8 c22 -22
27 -60 8 -60 -6 0 -31 11 -54 25 -29 17 -41 30 -38 40 9 22 61 18 84 -5z m680
-26 c0 -14 -4 -23 -10 -19 -5 3 -10 15 -10 26 0 10 5 19 10 19 6 0 10 -12 10
-26z m296 17 c-10 -16 -45 -19 -63 -5 -16 12 -13 13 25 14 24 0 41 -4 38 -9z
m-1372 -9 c4 -7 -69 -92 -80 -92 -5 0 4 42 17 78 8 22 52 32 63 14z m1141 -1
c3 -5 1 -12 -5 -16 -5 -3 -10 1 -10 9 0 18 6 21 15 7z m-575 -13 c0 -6 7 -19
15 -28 14 -15 13 -18 -3 -33 -17 -16 -20 -15 -53 19 -28 29 -31 36 -19 44 21
14 60 12 60 -2z m-269 -28 l44 -20 -46 0 c-25 0 -48 -3 -52 -6 -9 -10 4 -34
19 -34 17 0 18 -12 3 -27 -9 -9 -19 -5 -40 17 -26 25 -28 32 -18 54 7 14 19
27 28 29 9 3 17 5 17 6 1 0 21 -8 45 -19z m929 0 c-24 -15 -37 -11 -16 5 11 8
22 12 25 9 3 -3 -1 -9 -9 -14z m-1080 1 c0 -5 -13 -11 -30 -13 -16 -3 -30 -1
-30 3 0 7 10 10 53 18 4 0 7 -3 7 -8z m837 -38 c-9 -9 -20 -13 -24 -9 -4 4 1
14 11 22 25 18 35 8 13 -13z m-887 -84 c0 -17 -34 -9 -57 13 -15 14 -23 33
-23 52 l1 31 39 -44 c22 -24 40 -47 40 -52z m38 70 c-2 -6 -8 -10 -13 -10 -5
0 -11 4 -13 10 -2 6 4 11 13 11 9 0 15 -5 13 -11z m280 -46 c4 -37 4 -37 -52
-21 -52 15 -50 12 -35 36 9 14 22 20 48 18 33 -1 36 -4 39 -33z m102 16 c14
-24 6 -49 -14 -49 -10 0 -14 10 -13 35 2 40 11 44 27 14z m403 -8 c5 -5 -12
-8 -37 -7 -45 1 -53 5 -39 20 9 9 64 -1 76 -13z m-705 -52 c13 -19 34 -40 48
-47 22 -12 34 -42 17 -42 -18 0 -73 41 -73 54 0 7 -9 25 -20 39 -11 14 -20 28
-20 32 0 16 27 -4 48 -36z m175 -31 c32 -12 40 -58 9 -58 -20 0 -92 56 -92 72
0 11 35 5 83 -14z m290 -15 c-7 -2 -19 -2 -25 0 -7 3 -2 5 12 5 14 0 19 -2 13
-5z"/>
<path d="M7823 3673 c-30 -11 -5 -46 25 -36 6 3 12 13 12 24 0 19 -12 23 -37
12z"/>
<path d="M857 2144 c-12 -13 -8 -51 8 -64 21 -18 47 5 43 39 -3 26 -35 41 -51
25z"/>
</g>
</svg>
